<svg width="156" height="156" viewBox="0 0 156 156" fill="none" xmlns="http://www.w3.org/2000/svg">
<g filter="url(#filter0_d)">
<circle cx="78" cy="78" r="69.4717" fill="#EDEDED"/>
<circle cx="78" cy="78" r="69.4717" fill="url(#paint0_radial)"/>
<circle cx="78" cy="78" r="69.4717" stroke="#1D3738" stroke-width="1.0566"/>
<path d="M67.6366 44.9647C67.8292 45.097 67.9375 45.3257 68.13 45.458C68.0819 45.3618 68.0217 45.2775 67.9736 45.1813C67.9254 45.085 67.9134 44.9767 67.9856 44.8684C68.13 44.9647 68.13 45.1452 68.2383 45.2414C68.2142 45.1572 68.1902 45.085 68.1661 45.0008C68.1781 45.0008 68.1781 44.9887 68.1902 44.9887C68.2383 45.0489 68.2985 45.1091 68.3346 45.1813C68.491 45.434 68.6474 45.6867 68.8039 45.9394C68.8159 45.9634 68.852 45.9875 68.8761 46.0236C68.8881 45.9875 68.8881 45.9755 68.8881 45.9755C68.9242 45.8551 68.9242 45.8431 69.0566 45.8792C69.0927 45.8912 69.1288 45.8912 69.1769 45.8912C69.1649 45.8672 69.1528 45.8431 69.1408 45.8311C69.0927 45.7228 69.0806 45.6024 69.1408 45.4941C69.1528 45.4701 69.1769 45.446 69.201 45.446C69.213 45.446 69.2371 45.4701 69.2491 45.4941C69.2611 45.5182 69.2732 45.5543 69.2973 45.5784C69.3454 45.4219 69.3213 45.2655 69.4778 45.1452C69.4898 45.2414 69.5018 45.3257 69.5139 45.3979C69.5379 45.2294 69.5259 45.0609 69.6823 44.9165C69.6944 45.097 69.7064 45.2414 69.7184 45.3979C69.7305 45.3979 69.7425 45.3979 69.7545 45.3979C69.7545 45.3257 69.7666 45.2535 69.7666 45.1813C69.7666 45.0369 69.8388 44.9045 69.9471 44.8684C69.9471 44.9286 69.9471 44.9767 69.935 45.0369C69.9591 45.0128 69.9832 45.0008 70.0072 44.9887C70.0193 45.0248 70.0313 45.0609 70.0313 45.085C70.0674 45.2775 70.0433 45.4701 69.9711 45.6506C69.9471 45.7107 69.923 45.7709 69.935 45.8311C69.9471 45.9634 69.8989 46.0597 69.8267 46.168C69.7305 46.3003 69.6583 46.4327 69.574 46.5651C69.5861 46.5771 69.5861 46.5771 69.5981 46.5891C69.6823 46.5651 69.7666 46.541 69.8508 46.5169C69.9471 46.4929 70.0433 46.4568 70.1396 46.4447C70.1757 46.4447 70.2238 46.4568 70.2479 46.4808C70.284 46.5169 70.3081 46.5651 70.3321 46.6132C70.4043 46.7215 70.3923 46.8418 70.3201 46.914C70.3081 46.89 70.296 46.8659 70.296 46.8539C70.1998 46.902 70.1035 46.9501 70.0193 46.9862C70.0072 46.9862 69.9952 46.9862 69.9832 46.9983C69.8267 47.1427 69.6222 47.1788 69.4176 47.2389C69.3695 47.251 69.3093 47.275 69.2732 47.3111C69.0806 47.4676 68.864 47.5398 68.6234 47.5638C68.5512 47.5638 68.5271 47.5999 68.5151 47.6601C68.4669 47.7924 68.4188 47.9248 68.3586 48.0451C68.3346 48.0933 68.2864 48.1294 68.2263 48.0933C68.118 48.2617 67.9976 48.4061 67.8292 48.5265C67.8171 48.5024 67.8051 48.4783 67.7931 48.4663C67.6727 48.6227 67.5163 48.719 67.3478 48.7912C67.2997 48.8153 67.2515 48.8393 67.2154 48.8634C67.0109 49.0439 66.7822 49.1763 66.5295 49.2846C66.3611 49.3568 66.1926 49.4169 66.0241 49.4891C65.964 49.5132 65.9038 49.5493 65.8316 49.4771C65.976 49.3928 66.1445 49.3808 66.2287 49.2605C66.0602 49.3327 65.8797 49.4169 65.7113 49.5011C65.7113 49.4891 65.6992 49.4771 65.6992 49.4771C65.7594 49.441 65.8196 49.4169 65.8797 49.3808C66.0843 49.2485 66.2889 49.1402 66.4814 48.9837C66.686 48.8153 66.9387 48.6829 67.1553 48.5385C67.1793 48.5144 67.2034 48.4904 67.2395 48.4663C67.1312 48.5024 67.047 48.5626 66.9507 48.5987C66.7702 48.6709 66.7221 48.6709 66.6378 48.6468C66.9146 48.5746 67.1432 48.4302 67.3598 48.2738C67.2636 48.2978 67.1673 48.3339 67.071 48.358C67.071 48.346 67.059 48.346 67.059 48.3339C67.2636 48.2377 67.4802 48.1534 67.6366 47.9729C67.6126 47.9609 67.6005 47.9609 67.5524 47.9489C67.8051 47.8406 67.8773 47.5999 68.0337 47.4315C67.9134 47.4555 67.9134 47.4555 67.8893 47.3352C67.8893 47.3111 67.8773 47.2871 67.8653 47.2871C67.7449 47.275 67.7329 47.1788 67.7449 47.0825C67.7088 47.1066 67.6727 47.1306 67.6366 47.1547C67.6366 47.0705 67.4922 47.0825 67.5644 46.9742C67.42 46.9501 67.5524 46.8418 67.4922 46.7817C67.4682 46.7817 67.4321 46.7817 67.408 46.7817C67.408 46.7696 67.408 46.7696 67.408 46.7576C67.4441 46.7456 67.4802 46.7456 67.5283 46.7335C67.4922 46.7095 67.4681 46.6974 67.4441 46.6854C67.42 46.6734 67.3719 46.6493 67.3719 46.6252C67.3719 46.5891 67.408 46.5651 67.408 46.553C67.3839 46.529 67.2997 46.5049 67.2997 46.4688C67.2997 46.3364 67.42 46.4207 67.4922 46.3605C67.4441 46.3485 67.396 46.3485 67.3598 46.3364C67.3237 46.3244 67.2876 46.3003 67.2756 46.2642C67.2636 46.2402 67.2997 46.2041 67.3117 46.18C67.3358 46.1559 67.3599 46.1319 67.3719 46.1198C67.3117 46.0717 67.2515 46.0356 67.2034 45.9875C67.1914 45.9755 67.1793 45.9273 67.1914 45.9033C67.2034 45.8792 67.2395 45.8792 67.2756 45.8792C67.3478 45.8792 67.408 45.8912 67.4802 45.9033C67.4561 45.8672 67.4321 45.8551 67.408 45.8311C67.3358 45.7589 67.2636 45.6987 67.2034 45.6265C67.1673 45.5784 67.1553 45.5182 67.1914 45.4701C67.3117 45.5423 67.42 45.6024 67.5404 45.6626C67.5404 45.6506 67.5524 45.6506 67.5524 45.6385C67.4682 45.4941 67.2997 45.3979 67.2636 45.1933C67.4922 45.2535 67.6126 45.4701 67.8292 45.5302C67.6607 45.3016 67.6487 45.2655 67.6727 45.2174C67.6126 45.1331 67.5885 45.085 67.6366 44.9647ZM66.325 49.2485C66.8665 49.0198 67.3117 48.6588 67.6727 48.1895C67.2756 48.6227 66.7943 48.9356 66.325 49.2485Z" fill="#202313"/>
<path d="M135.072 58.0447C134.435 57.4912 133.785 56.9497 133.135 56.4082C132.485 55.8667 131.823 55.3493 131.149 54.8198C128.478 52.7502 125.686 50.8128 122.774 49.068C121.318 48.2016 119.826 47.3714 118.31 46.6133C116.793 45.8552 115.229 45.1573 113.641 44.5436C112.052 43.9299 110.428 43.3884 108.767 42.9552C107.106 42.522 105.422 42.2092 103.713 42.0287C102.859 41.9444 101.992 41.8963 101.138 41.8843H100.813H100.644C100.584 41.8843 100.524 41.8843 100.476 41.8963C100.247 41.9083 100.019 41.9324 99.8021 41.9685C99.3568 42.0287 98.9236 42.1249 98.5025 42.2332C97.6601 42.4498 96.8418 42.7266 96.0356 43.0274C95.2293 43.3282 94.4472 43.6652 93.665 44.0141C92.8828 44.3631 92.1247 44.7361 91.3545 45.1091C90.5964 45.4822 89.8383 45.8793 89.0922 46.2764C88.3462 46.6734 87.6001 47.0826 86.866 47.5037C86.132 47.9249 85.3979 48.346 84.6639 48.7672C81.7518 50.4879 78.8878 52.2929 76.0719 54.158C75.8072 54.3265 75.5545 54.507 75.2898 54.6754L75.2296 54.6393C75.1814 54.6153 75.1453 54.5792 75.1092 54.5551C75.0731 54.531 75.025 54.507 74.9889 54.4829C74.9528 54.4589 74.9167 54.4348 74.8806 54.4228C74.7242 54.3385 74.5798 54.2543 74.4354 54.1821C74.1345 54.0377 73.8457 53.8933 73.5449 53.7609C72.9552 53.4842 72.3536 53.2315 71.7519 52.9908C70.5485 52.4975 69.3331 52.0522 68.1057 51.6431C66.8783 51.234 65.6388 50.861 64.3874 50.5361C63.1359 50.2112 61.8603 49.9344 60.5727 49.7419C59.935 49.6456 59.2851 49.5614 58.6233 49.5133C58.2984 49.4892 57.9735 49.4772 57.6365 49.4651C57.4681 49.4651 57.3116 49.4651 57.1432 49.4651C56.9627 49.4651 56.7942 49.4772 56.6137 49.5012C56.2768 49.5494 55.9398 49.6095 55.6269 49.6937C55.302 49.778 54.9892 49.8742 54.6763 49.9705C54.0505 50.1751 53.4489 50.4157 52.8472 50.6564C51.6559 51.1498 50.4886 51.7153 49.3334 52.2929C48.1782 52.8705 47.047 53.4721 45.9159 54.0979C43.6656 55.3373 41.4394 56.6368 39.2373 57.9605C37.0351 59.2841 34.857 60.6439 32.691 62.0156C30.525 63.3874 28.371 64.7832 26.229 66.2031C24.087 67.611 21.9451 69.0429 19.8271 70.4869C21.9691 69.079 24.1352 67.6832 26.3012 66.3114C28.4672 64.9397 30.6453 63.5799 32.8354 62.2443C35.0255 60.9086 37.2277 59.597 39.4539 58.3094C41.6801 57.0219 43.9183 55.7705 46.1806 54.5792C47.3118 53.9775 48.4549 53.3999 49.6102 52.8464C50.7654 52.2929 51.9206 51.7634 53.1119 51.2941C53.7016 51.0655 54.3033 50.8489 54.9049 50.6564C55.5066 50.4759 56.1083 50.3195 56.71 50.2473C56.8544 50.2352 56.9988 50.2232 57.1432 50.2232C57.2996 50.2232 57.456 50.2232 57.6125 50.2352C57.9253 50.2473 58.2382 50.2713 58.5511 50.2954C59.1768 50.3556 59.8026 50.4398 60.4283 50.5481C61.6798 50.7647 62.9072 51.0535 64.1347 51.4024C65.3621 51.7394 66.5775 52.1365 67.7688 52.5576C68.9721 52.9788 70.1514 53.4481 71.3307 53.9414C71.9204 54.1941 72.498 54.4468 73.0635 54.7236C73.3524 54.8559 73.6291 55.0003 73.9059 55.1447C74.0262 55.2049 74.1466 55.2771 74.2669 55.3373C74.1586 55.4095 74.0623 55.4817 73.954 55.5418C73.2561 56.0232 72.5581 56.4924 71.8722 56.9738C71.1743 57.4551 70.4884 57.9484 69.8025 58.4298C69.1165 58.9231 68.4306 59.4165 67.7568 59.9219C68.4667 59.4646 69.1767 59.0194 69.8987 58.5742C70.6087 58.1289 71.3307 57.6717 72.0407 57.2385L74.1947 55.9028C74.9167 55.4576 75.6387 55.0244 76.3607 54.5912C79.2488 52.8464 82.1489 51.1377 85.0971 49.5012C85.8311 49.0921 86.5652 48.683 87.3113 48.2979C88.0573 47.9008 88.7914 47.5037 89.5495 47.1307C91.0417 46.3726 92.5579 45.6266 94.0862 44.9647C94.8563 44.6278 95.6264 44.315 96.3966 44.0262C97.1788 43.7374 97.961 43.4847 98.7552 43.2801C99.1523 43.1839 99.5494 43.0996 99.9345 43.0395C100.127 43.0154 100.32 42.9913 100.512 42.9793L100.656 42.9673H100.801H101.114C101.944 42.9793 102.762 43.0274 103.593 43.1117C105.241 43.2801 106.878 43.5809 108.49 43.9901C109.297 44.1946 110.103 44.4233 110.897 44.676C111.691 44.9286 112.473 45.2054 113.256 45.4942C114.82 46.0838 116.36 46.7456 117.864 47.4676C119.381 48.1896 120.861 48.9718 122.329 49.79C125.253 51.4385 128.081 53.2676 130.825 55.2169C131.51 55.6983 132.196 56.2036 132.87 56.697C133.544 57.2024 134.218 57.7198 134.88 58.2252C135.542 58.7426 136.204 59.2721 136.853 59.8015C137.503 60.331 138.153 60.8725 138.791 61.438C137.599 60.2949 136.348 59.1518 135.072 58.0447Z" fill="url(#paint1_linear)"/>
<path d="M61.0177 43.6169C61.0177 43.6169 61.6194 42.907 62.6904 41.4871C62.6904 41.4871 62.6302 41.8962 62.4377 42.1489C62.4377 42.1489 62.7265 42.0165 62.8709 41.7037C62.8709 41.7037 62.7987 42.1248 62.6543 42.2692C62.6543 42.2692 62.919 42.2211 63.0032 42.0165C63.0032 42.0165 62.8709 42.3895 62.6783 42.4497C62.6783 42.4497 62.931 42.4497 63.0032 42.3414C63.0032 42.3414 62.6061 43.8816 61.7879 44.4833C61.7879 44.4833 61.7397 44.5796 61.7999 44.6638C61.7999 44.6638 62.1128 44.6758 62.3053 44.6638C62.3053 44.6638 62.2812 44.8202 62.2331 44.8684C62.2331 44.8684 62.3173 44.8924 62.3414 44.8563C62.3414 44.8563 62.3534 44.9406 62.3053 44.9767C62.3053 44.9767 62.3414 45.0248 62.3655 45.0128C62.3655 45.0128 62.1368 45.3015 62.5821 45.9634C63.0273 46.6252 63.0995 46.8057 63.0995 46.8057C63.0995 46.8057 62.1368 45.7829 61.836 45.6505C61.5352 45.5181 61.2343 45.5903 61.2343 45.5903C61.2343 45.5903 61.2463 45.5302 61.2824 45.5302C61.2824 45.5302 61.1621 45.5422 61.126 45.6024C61.126 45.6024 61.114 45.482 61.1621 45.458C61.1621 45.458 61.1621 45.2414 61.114 45.1211C61.0658 44.9887 61.0418 45.0128 61.0057 45.0248C60.9575 45.0368 60.8011 45.3978 60.1513 45.4459C60.1513 45.4459 60.0911 45.4339 60.0671 45.3978C60.0671 45.3978 60.031 45.4339 60.0189 45.482C60.0189 45.482 58.9961 45.5663 58.2981 45.1572C58.2981 45.1572 58.5508 45.1812 58.6351 45.0489C58.6351 45.0489 58.1176 45.0128 58.0214 44.8924C58.0214 44.8924 58.4666 44.8563 58.5027 44.7841C58.5027 44.7841 57.9973 44.7962 57.877 44.6157C57.877 44.6157 60.0671 44.6277 60.3198 44.2306C60.3198 44.2306 60.392 44.0381 60.2957 43.9538C60.1994 43.8696 59.9828 43.4725 60.1513 43.3041C60.3198 43.1356 60.5484 43.1717 60.7169 43.3522C60.8733 43.5327 60.8974 43.6891 61.0177 43.6169Z" fill="#202313"/>
<path d="M60.1875 43.2079C60.1875 43.1838 60.1875 43.1838 60.2116 43.1838C60.2356 43.1838 60.356 43.232 60.356 43.232L60.2116 43.2921C60.1995 43.3042 60.1875 43.232 60.1875 43.2079Z" fill="#202313"/>
<path d="M128.923 78.4045C128.923 78.4045 122.954 79.1987 121.318 75.7212C121.318 75.7212 123.496 76.9004 126.095 74.6141C126.095 74.6141 122.256 74.0847 120.993 71.9067C120.981 71.8826 120.981 71.8585 120.969 71.8345C120.969 71.8345 123.845 72.7731 125.602 71.3532C125.602 71.3532 120.897 70.7034 119.043 68.3569C119.043 68.3569 120.716 69.0548 122.413 68.0681C122.413 68.0681 119.91 67.7673 118.694 66.215C118.694 66.215 121.426 67.2138 123.207 66.2752C123.207 66.2752 120.319 65.9142 118.634 63.1346C118.634 63.1346 119.91 63.5317 121.354 62.8698C121.354 62.8698 118.045 61.7869 116.589 59.8255C116.589 59.8255 118.983 60.1143 119.705 59.4524C119.705 59.4524 115.758 59.1516 113.893 53.46C112.016 59.1516 108.586 59.2358 108.586 59.2358C109.308 59.8977 110.933 59.5487 110.933 59.5487C109.561 61.7869 106.36 61.8952 106.36 61.8952C107.563 63.3391 109.645 62.4487 109.645 62.4487C107.961 65.2283 103.737 65.9262 103.737 65.9262C105.205 67.1055 108.514 66.2752 108.514 66.2752C107.251 68.369 103.905 68.5855 103.905 68.5855C106.42 70.1619 108.779 68.9225 108.779 68.9225C106.095 71.7743 102.377 71.4374 102.377 71.4374C103.713 73.3266 106.492 72.4722 106.492 72.4722C106.48 72.4963 106.48 72.5204 106.468 72.5444C105.458 75.2158 100.837 74.2411 100.837 74.2411C102.834 78.1879 107.263 75.8415 107.263 75.8415C105.638 79.3311 98.5503 78.5489 98.5503 78.5489C100.223 80.5585 102.184 79.5958 102.184 79.5958C102.124 80.1975 100.801 80.8473 100.801 80.8473C102.81 82.3755 107.275 80.4141 107.275 80.4141C105.121 83.4103 100.776 83.7713 100.776 83.7713C102.618 85.3958 108.406 84.2887 108.406 84.2887C107.912 85.1912 106.143 85.5642 106.143 85.5642C108.803 86.3825 112.93 86.1418 112.93 86.1418V88.2235H113.893H114.856V86.1539C114.856 86.1539 118.791 86.0696 121.438 85.2514C121.438 85.2514 119.296 84.7099 118.791 83.8074C118.791 83.8074 124.615 85.48 126.817 82.7605C126.817 82.7605 123.977 83.1576 121.847 80.1734C121.847 80.1734 124.663 81.7618 127.202 80.7029C127.202 80.7029 125.542 80.1493 125.481 79.5357C125.469 79.5357 127.395 79.9327 128.923 78.4045Z" fill="url(#paint2_linear)"/>
<path d="M107.022 74.2774C107.022 74.2774 101.355 75.0355 99.8144 71.7264C99.8144 71.7264 101.872 72.8455 104.339 70.6675C104.339 70.6675 100.693 70.1621 99.5015 68.1044C99.4895 68.0804 99.4895 68.0563 99.4774 68.0443C99.4774 68.0443 102.197 68.9347 103.87 67.587C103.87 67.587 99.4052 66.9733 97.6483 64.7472C97.6483 64.7472 99.2368 65.409 100.849 64.4704C100.849 64.4704 98.4787 64.1816 97.3234 62.7136C97.3234 62.7136 99.9107 63.6522 101.595 62.7738C101.595 62.7738 98.8517 62.4369 97.2512 59.8016C97.2512 59.8016 98.4666 60.1867 99.8264 59.5489C99.8264 59.5489 96.6977 58.5141 95.3018 56.661C95.3018 56.661 97.5762 56.9377 98.2621 56.3C98.2621 56.3 94.5196 56.0112 92.7507 50.6204C90.9818 56.0112 87.7207 56.0954 87.7207 56.0954C88.4066 56.7211 89.9469 56.3962 89.9469 56.3962C88.6473 58.5141 85.6028 58.6224 85.6028 58.6224C86.7339 59.9941 88.7195 59.1398 88.7195 59.1398C87.119 61.775 83.1118 62.4369 83.1118 62.4369C84.5077 63.5559 87.6364 62.7738 87.6364 62.7738C86.4451 64.7592 83.2683 64.9638 83.2683 64.9638C85.6629 66.4559 87.8891 65.2887 87.8891 65.2887C85.3501 67.9961 81.8242 67.6833 81.8242 67.6833C83.0878 69.4642 85.7231 68.67 85.7231 68.67C85.7111 68.6941 85.7111 68.7181 85.699 68.7302C84.7484 71.2571 80.3682 70.3306 80.3682 70.3306C82.2575 74.0728 86.4572 71.8467 86.4572 71.8467C84.9169 75.1558 78.2021 74.4098 78.2021 74.4098C79.7906 76.311 81.6437 75.4085 81.6437 75.4085C81.5836 75.9861 80.3321 76.5998 80.3321 76.5998C82.2334 78.0558 86.4812 76.1907 86.4812 76.1907C84.4596 79.0184 80.3321 79.3674 80.3321 79.3674C82.077 80.9076 87.5642 79.8608 87.5642 79.8608C87.0949 80.7151 85.4102 81.0641 85.4102 81.0641C87.9252 81.8462 91.8362 81.6176 91.8362 81.6176V83.579H92.7507H93.6653V81.6176C93.6653 81.6176 97.3956 81.5454 99.9107 80.7632C99.9107 80.7632 97.877 80.2458 97.4077 79.3915C97.4077 79.3915 102.931 80.9798 105.013 78.4048C105.013 78.4048 102.329 78.7778 100.296 75.95C100.296 75.95 102.967 77.4541 105.374 76.4434C105.374 76.4434 103.797 75.9139 103.737 75.3363C103.749 75.3604 105.566 75.7334 107.022 74.2774Z" fill="url(#paint3_linear)"/>
<path d="M76.9987 78.3688C76.9987 78.3688 71.006 79.175 69.3694 75.6734C69.3694 75.6734 71.5475 76.8526 74.1588 74.5543C74.1588 74.5543 70.308 74.0249 69.0445 71.8348C69.0325 71.8108 69.0325 71.7867 69.0204 71.7626C69.0204 71.7626 71.8965 72.7012 73.6774 71.2813C73.6774 71.2813 68.9482 70.6315 67.0951 68.273C67.0951 68.273 68.7798 68.971 70.4765 67.9842C70.4765 67.9842 67.9615 67.6834 66.7461 66.1191C66.7461 66.1191 69.4897 67.1179 71.2707 66.1793C71.2707 66.1793 68.3706 65.8183 66.6739 63.0266C66.6739 63.0266 67.9615 63.4357 69.3935 62.7619C69.3935 62.7619 66.0722 61.6669 64.6162 59.7055C64.6162 59.7055 67.0229 59.9943 67.7449 59.3325C67.7449 59.3325 63.7858 59.0316 61.9086 53.3159C60.0314 59.0196 56.5778 59.1159 56.5778 59.1159C57.2998 59.7777 58.9363 59.4408 58.9363 59.4408C57.5645 61.6909 54.3395 61.7992 54.3395 61.7992C55.5429 63.2432 57.6367 62.3528 57.6367 62.3528C55.94 65.1444 51.7042 65.8424 51.7042 65.8424C53.1723 67.0216 56.4935 66.2034 56.4935 66.2034C55.23 68.2971 51.8606 68.5257 51.8606 68.5257C54.3877 70.1141 56.7462 68.8747 56.7462 68.8747C54.0627 71.7386 50.3203 71.4016 50.3203 71.4016C51.656 73.2908 54.4478 72.4485 54.4478 72.4485C54.4358 72.4726 54.4358 72.4967 54.4238 72.5207C53.4129 75.1921 48.78 74.2174 48.78 74.2174C50.7776 78.1883 55.23 75.8298 55.23 75.8298C53.5934 79.3314 46.4937 78.5373 46.4937 78.5373C48.1783 80.5468 50.1398 79.5962 50.1398 79.5962C50.0796 80.1978 48.756 80.8476 48.756 80.8476C50.7776 82.3879 55.2541 80.4144 55.2541 80.4144C53.1121 83.4107 48.756 83.7717 48.756 83.7717C50.5971 85.3961 56.4093 84.2891 56.4093 84.2891C55.9159 85.2036 54.135 85.5646 54.135 85.5646C56.8064 86.3828 60.9459 86.1542 60.9459 86.1542V88.2239H61.9086H62.8713V86.1422C62.8713 86.1422 66.8183 86.0579 69.4777 85.2397C69.4777 85.2397 67.3237 84.6982 66.8303 83.7837C66.8303 83.7837 72.6666 85.4683 74.8808 82.7368C74.8808 82.7368 72.0409 83.1339 69.8869 80.1497C69.8869 80.1497 72.7147 81.7381 75.2538 80.6792C75.2538 80.6792 73.5932 80.1136 73.521 79.5119C73.545 79.5119 75.4704 79.909 76.9987 78.3688Z" fill="url(#paint4_linear)"/>
<path d="M85.0615 77.4181C85.0615 77.4181 80.6452 78.0077 79.4418 75.4326C79.4418 75.4326 81.0543 76.299 82.9677 74.6144C82.9677 74.6144 80.1277 74.2173 79.2012 72.6169C79.1891 72.6048 79.1891 72.5808 79.1771 72.5688C79.1771 72.5688 81.295 73.2546 82.6067 72.2078C82.6067 72.2078 79.129 71.7264 77.7571 69.9937C77.7571 69.9937 78.9966 70.5111 80.2481 69.7771C80.2481 69.7771 78.3949 69.5484 77.4924 68.4053C77.4924 68.4053 79.514 69.1393 80.8257 68.4534C80.8257 68.4534 78.6958 68.1887 77.4443 66.1311C77.4443 66.1311 78.3949 66.4319 79.4539 65.9385C79.4539 65.9385 77.0111 65.1323 75.928 63.6883C75.928 63.6883 77.697 63.9049 78.2385 63.4116C78.2385 63.4116 75.3264 63.1829 73.9425 58.9834C72.5586 63.1829 70.0196 63.2551 70.0196 63.2551C70.549 63.7485 71.7524 63.4958 71.7524 63.4958C70.7416 65.1443 68.371 65.2286 68.371 65.2286C69.2615 66.2995 70.8017 65.6377 70.8017 65.6377C69.5503 67.6954 66.4336 68.2007 66.4336 68.2007C67.5166 69.0671 69.9594 68.4655 69.9594 68.4655C69.0328 70.0057 66.5539 70.1742 66.5539 70.1742C68.4191 71.3414 70.1519 70.4269 70.1519 70.4269C68.1664 72.5327 65.4228 72.292 65.4228 72.292C66.4095 73.6878 68.4552 73.0621 68.4552 73.0621C68.4552 73.0741 68.4432 73.0982 68.4311 73.1102C67.6851 75.0837 64.2675 74.3617 64.2675 74.3617C65.7356 77.2857 69.0087 75.5409 69.0087 75.5409C67.8054 78.116 62.5708 77.5384 62.5708 77.5384C63.8103 79.0185 65.2543 78.3206 65.2543 78.3206C65.2061 78.7658 64.2314 79.2471 64.2314 79.2471C65.7116 80.3782 69.0208 78.9222 69.0208 78.9222C67.4444 81.1243 64.2314 81.401 64.2314 81.401C65.5912 82.5923 69.8631 81.7861 69.8631 81.7861C69.4901 82.4599 68.1905 82.7247 68.1905 82.7247C70.1519 83.3263 73.1964 83.1579 73.1964 83.1579V84.6861H73.9064H74.6164V83.1579C74.6164 83.1579 77.5165 83.0977 79.49 82.496C79.49 82.496 77.9015 82.099 77.5405 81.4251C77.5405 81.4251 81.8365 82.6645 83.4731 80.655C83.4731 80.655 81.3792 80.9438 79.8028 78.7417C79.8028 78.7417 81.8846 79.9089 83.7619 79.1268C83.7619 79.1268 82.5345 78.7177 82.4863 78.2724C82.5104 78.2484 83.9303 78.5492 85.0615 77.4181Z" fill="url(#paint5_linear)"/>
<path d="M54.7486 74.3496C54.7486 74.3496 49.1289 75.1077 47.5886 71.8227C47.5886 71.8227 49.6343 72.9297 52.0892 70.7758C52.0892 70.7758 48.4791 70.2704 47.2878 68.2248C47.2757 68.2007 47.2758 68.1766 47.2637 68.1646C47.2637 68.1646 49.9713 69.043 51.6319 67.7073C51.6319 67.7073 47.1915 67.0936 45.4587 64.8916C45.4587 64.8916 47.0351 65.5534 48.6355 64.6269C48.6355 64.6269 46.277 64.3381 45.1338 62.8821C45.1338 62.8821 47.709 63.8206 49.3816 62.9422C49.3816 62.9422 46.662 62.6053 45.0736 59.9821C45.0736 59.9821 46.277 60.3551 47.6247 59.7294C47.6247 59.7294 44.508 58.7066 43.1362 56.8655C43.1362 56.8655 45.3985 57.1303 46.0724 56.5166C46.0724 56.5166 42.3661 56.2278 40.5971 50.873C38.8402 56.2278 35.6032 56.312 35.6032 56.312C36.2771 56.9377 37.8174 56.6128 37.8174 56.6128C36.5298 58.7186 33.5094 58.8269 33.5094 58.8269C34.6405 60.1867 36.602 59.3443 36.602 59.3443C35.0136 61.9555 31.0425 62.6173 31.0425 62.6173C32.4264 63.7244 35.531 62.9543 35.531 62.9543C34.3397 64.9277 31.1869 65.1323 31.1869 65.1323C33.5575 66.6123 35.7717 65.4571 35.7717 65.4571C33.2446 68.1405 29.7429 67.8277 29.7429 67.8277C30.9944 69.5965 33.6177 68.8023 33.6177 68.8023C33.6056 68.8264 33.6056 68.8505 33.5936 68.8625C32.643 71.3774 28.2989 70.4509 28.2989 70.4509C30.1761 74.1691 34.3517 71.955 34.3517 71.955C32.7994 75.228 26.1328 74.494 26.1328 74.494C27.7092 76.3832 29.5503 75.4807 29.5503 75.4807C29.4902 76.0463 28.2507 76.66 28.2507 76.66C30.14 78.1039 34.3517 76.2508 34.3517 76.2508C32.3421 79.0545 28.2507 79.4035 28.2507 79.4035C29.9835 80.9317 35.4347 79.8969 35.4347 79.8969C34.9654 80.7512 33.3048 81.1002 33.3048 81.1002C35.8078 81.8703 39.6946 81.6537 39.6946 81.6537V83.603H40.6092H41.5237V81.6537C41.5237 81.6537 45.23 81.5815 47.721 80.7993C47.721 80.7993 45.6994 80.2939 45.2301 79.4396C45.2301 79.4396 50.7053 81.0159 52.7871 78.4649C52.7871 78.4649 50.1157 78.8379 48.1061 76.0342C48.1061 76.0342 50.7534 77.5263 53.1481 76.5276C53.1481 76.5276 51.5838 75.9981 51.5236 75.4326C51.4995 75.4205 53.3046 75.7936 54.7486 74.3496Z" fill="url(#paint6_linear)"/>
<path d="M137.227 77.4181C137.227 77.4181 132.81 78.0077 131.607 75.4326C131.607 75.4326 133.219 76.299 135.133 74.6144C135.133 74.6144 132.293 74.2173 131.366 72.6169C131.354 72.6048 131.354 72.5808 131.342 72.5688C131.342 72.5688 133.46 73.2546 134.772 72.2078C134.772 72.2078 131.294 71.7264 129.922 69.9937C129.922 69.9937 131.162 70.5111 132.413 69.7771C132.413 69.7771 130.56 69.5484 129.657 68.4053C129.657 68.4053 131.679 69.1393 132.991 68.4534C132.991 68.4534 130.861 68.1887 129.609 66.1311C129.609 66.1311 130.56 66.4319 131.619 65.9385C131.619 65.9385 129.176 65.1323 128.093 63.6883C128.093 63.6883 129.862 63.9049 130.404 63.4116C130.404 63.4116 127.491 63.1829 126.108 58.9834C124.724 63.1829 122.185 63.2551 122.185 63.2551C122.714 63.7485 123.917 63.4958 123.917 63.4958C122.907 65.1443 120.536 65.2286 120.536 65.2286C121.426 66.2995 122.967 65.6377 122.967 65.6377C121.715 67.6954 118.599 68.2007 118.599 68.2007C119.682 69.0671 122.124 68.4655 122.124 68.4655C121.198 70.0057 118.719 70.1742 118.719 70.1742C120.584 71.3414 122.317 70.4269 122.317 70.4269C120.331 72.5327 117.588 72.292 117.588 72.292C118.575 73.6878 120.62 73.0621 120.62 73.0621C120.62 73.0741 120.608 73.0982 120.596 73.1102C119.85 75.0837 116.433 74.3617 116.433 74.3617C117.901 77.2857 121.174 75.5409 121.174 75.5409C119.97 78.116 114.736 77.5384 114.736 77.5384C115.975 79.0185 117.419 78.3206 117.419 78.3206C117.371 78.7658 116.396 79.2471 116.396 79.2471C117.877 80.3782 121.186 78.9222 121.186 78.9222C119.609 81.1243 116.396 81.401 116.396 81.401C117.756 82.5923 122.028 81.7861 122.028 81.7861C121.655 82.4599 120.356 82.7247 120.356 82.7247C122.317 83.3263 125.361 83.1579 125.361 83.1579V84.6861H126.071H126.781V83.1579C126.781 83.1579 129.682 83.0977 131.655 82.496C131.655 82.496 130.067 82.099 129.706 81.4251C129.706 81.4251 134.002 82.6645 135.638 80.655C135.638 80.655 133.544 80.9438 131.968 78.7417C131.968 78.7417 134.05 79.9089 135.927 79.1268C135.927 79.1268 134.699 78.7177 134.651 78.2724C134.675 78.2484 136.095 78.5492 137.227 77.4181Z" fill="url(#paint7_linear)"/>
<path d="M113.292 85.9253C113.292 85.9253 108.864 86.5149 107.661 83.9398C107.661 83.9398 109.273 84.8062 111.199 83.1216C111.199 83.1216 108.359 82.7245 107.42 81.1121C107.408 81.1 107.408 81.076 107.396 81.0639C107.396 81.0639 109.526 81.7619 110.826 80.7029C110.826 80.7029 107.336 80.2216 105.964 78.4889C105.964 78.4889 107.203 79.0063 108.455 78.2723C108.455 78.2723 106.602 78.0436 105.699 76.9005C105.699 76.9005 107.721 77.6345 109.045 76.9486C109.045 76.9486 106.903 76.6839 105.651 74.6262C105.651 74.6262 106.602 74.9271 107.661 74.4337C107.661 74.4337 105.218 73.6275 104.135 72.1835C104.135 72.1835 105.916 72.4001 106.445 71.9068C106.445 71.9068 103.521 71.6781 102.137 67.4666C100.753 71.6781 98.2024 71.7383 98.2024 71.7383C98.7318 72.2317 99.9472 71.979 99.9472 71.979C98.9364 73.6395 96.5538 73.7238 96.5538 73.7238C97.4442 74.7947 98.9966 74.1329 98.9966 74.1329C97.7451 76.1905 94.6164 76.708 94.6164 76.708C95.6994 77.5743 98.1542 76.9727 98.1542 76.9727C97.2156 78.525 94.7367 78.6814 94.7367 78.6814C96.6019 79.8486 98.3468 78.9341 98.3468 78.9341C96.3612 81.0399 93.6055 80.7992 93.6055 80.7992C94.5923 82.195 96.65 81.5693 96.65 81.5693C96.65 81.5814 96.638 81.6054 96.626 81.6175C95.8799 83.5909 92.4624 82.8689 92.4624 82.8689C93.9425 85.7929 97.2156 84.0602 97.2156 84.0602C96.0123 86.6473 90.7656 86.0577 90.7656 86.0577C92.0051 87.5377 93.4611 86.8398 93.4611 86.8398C93.413 87.285 92.4383 87.7664 92.4383 87.7664C93.9304 88.8975 97.2397 87.4415 97.2397 87.4415C95.6512 89.6435 92.4383 89.9203 92.4383 89.9203C93.7981 91.1236 98.082 90.3053 98.082 90.3053C97.709 90.9792 96.3973 91.2439 96.3973 91.2439C98.3708 91.8576 101.415 91.6771 101.415 91.6771V93.2174H102.125H102.835V91.6771C102.835 91.6771 105.747 91.617 107.709 91.0033C107.709 91.0033 106.12 90.6062 105.747 89.9323C105.747 89.9323 110.055 91.1717 111.692 89.1622C111.692 89.1622 109.598 89.451 108.01 87.2489C108.01 87.2489 110.091 88.4282 111.969 87.634C111.969 87.634 110.741 87.2249 110.693 86.7676C110.729 86.7676 112.161 87.0684 113.292 85.9253Z" fill="url(#paint8_linear)"/>
<path d="M61.0547 84.9508C61.0547 84.9508 56.6383 85.5404 55.435 82.9653C55.435 82.9653 57.0475 83.8317 58.9608 82.1471C58.9608 82.1471 56.1209 81.75 55.1943 80.1496C55.1823 80.1376 55.1823 80.1135 55.1703 80.1015C55.1703 80.1015 57.2882 80.7874 58.5998 79.7405C58.5998 79.7405 55.1221 79.2592 53.7503 77.5264C53.7503 77.5264 54.9898 78.0438 56.2412 77.3098C56.2412 77.3098 54.3881 77.0812 53.4856 75.938C53.4856 75.938 55.5072 76.672 56.8189 75.9861C56.8189 75.9861 54.6889 75.7214 53.4374 73.6638C53.4374 73.6638 54.3881 73.9646 55.447 73.4712C55.447 73.4712 53.0042 72.665 51.9212 71.2211C51.9212 71.2211 53.6901 71.4376 54.2316 70.9443C54.2316 70.9443 51.3195 70.7157 49.9357 66.5161C48.5518 70.7157 46.0127 70.7879 46.0127 70.7879C46.5422 71.2812 47.7456 71.0285 47.7456 71.0285C46.7347 72.6771 44.3641 72.7613 44.3641 72.7613C45.2546 73.8322 46.7949 73.1704 46.7949 73.1704C45.5434 75.2281 42.4267 75.7335 42.4267 75.7335C43.5098 76.5998 45.9526 75.9982 45.9526 75.9982C45.026 77.5384 42.5471 77.7069 42.5471 77.7069C44.4123 78.8741 46.1451 77.9596 46.1451 77.9596C44.1596 80.0654 41.4159 79.8247 41.4159 79.8247C42.4027 81.2205 44.4484 80.5948 44.4484 80.5948C44.4484 80.6069 44.4363 80.6309 44.4243 80.643C43.6782 82.6164 40.2607 81.8944 40.2607 81.8944C41.7288 84.8184 45.0019 83.0736 45.0019 83.0736C43.7986 85.6487 38.564 85.0711 38.564 85.0711C39.8034 86.5512 41.2474 85.8533 41.2474 85.8533C41.1993 86.2985 40.2246 86.7798 40.2246 86.7798C41.7047 87.9109 45.0139 86.4549 45.0139 86.4549C43.4375 88.657 40.2246 88.9337 40.2246 88.9337C41.5844 90.125 45.8563 89.3188 45.8563 89.3188C45.4833 89.9927 44.1836 90.2574 44.1836 90.2574C46.1451 90.859 49.1896 90.6906 49.1896 90.6906V92.2188H49.8996H50.6095V90.6906C50.6095 90.6906 53.5096 90.6304 55.4831 90.0288C55.4831 90.0288 53.8947 89.6317 53.5337 88.9578C53.5337 88.9578 57.8297 90.1972 59.4662 88.1877C59.4662 88.1877 57.3724 88.4765 55.796 86.2744C55.796 86.2744 57.8778 87.4416 59.755 86.6595C59.755 86.6595 58.5276 86.2504 58.4795 85.8051C58.5035 85.7811 59.9235 86.0819 61.0547 84.9508Z" fill="url(#paint9_linear)"/>
<path d="M39.5384 82.4721C39.5384 82.4721 35.9163 82.9534 34.9296 80.8477C34.9296 80.8477 36.2533 81.5576 37.8297 80.1738C37.8297 80.1738 35.4951 79.8489 34.737 78.5373C34.725 78.5253 34.725 78.5132 34.725 78.5012C34.725 78.5012 36.4699 79.0668 37.5408 78.2124C37.5408 78.2124 34.6889 77.8153 33.5577 76.3954C33.5577 76.3954 34.5806 76.8166 35.6034 76.227C35.6034 76.227 34.0872 76.0465 33.3411 75.1079C33.3411 75.1079 35.0018 75.7095 36.0728 75.144C36.0728 75.144 34.3159 74.9274 33.293 73.2427C33.293 73.2427 34.0752 73.4834 34.9416 73.0863C34.9416 73.0863 32.932 72.4245 32.0536 71.2332C32.0536 71.2332 33.5096 71.4017 33.9428 71.0046C33.9428 71.0046 31.5481 70.8241 30.417 67.3706C29.2858 70.8241 27.192 70.8722 27.192 70.8722C27.6252 71.2693 28.612 71.0648 28.612 71.0648C27.7816 72.4245 25.8322 72.4847 25.8322 72.4847C26.5542 73.3631 27.8298 72.8216 27.8298 72.8216C26.8069 74.5062 24.2438 74.9274 24.2438 74.9274C25.1343 75.6373 27.1439 75.144 27.1439 75.144C26.3737 76.4074 24.34 76.5518 24.34 76.5518C25.8683 77.5145 27.2883 76.7564 27.2883 76.7564C25.6637 78.4892 23.4014 78.2846 23.4014 78.2846C24.2077 79.4278 25.8924 78.9103 25.8924 78.9103C25.8924 78.9224 25.8803 78.9344 25.8803 78.9464C25.2666 80.5589 22.4628 79.9692 22.4628 79.9692C23.6782 82.3638 26.3617 80.9439 26.3617 80.9439C25.399 83.0377 21.103 82.5684 21.103 82.5684C22.1259 83.7837 23.3052 83.2061 23.3052 83.2061C23.2691 83.5671 22.4628 83.9642 22.4628 83.9642C23.6782 84.8908 26.3978 83.6995 26.3978 83.6995C25.0982 85.5045 22.4628 85.7331 22.4628 85.7331C23.5819 86.7198 27.0837 86.0459 27.0837 86.0459C26.7829 86.5995 25.7119 86.8161 25.7119 86.8161C27.3244 87.3094 29.8273 87.165 29.8273 87.165V88.4285H30.417H31.0066V87.165C31.0066 87.165 33.3893 87.1169 35.0018 86.6115C35.0018 86.6115 33.7021 86.2866 33.4013 85.7331C33.4013 85.7331 36.9271 86.7559 38.2629 85.1074C38.2629 85.1074 36.5421 85.348 35.2424 83.5431C35.2424 83.5431 36.9512 84.5057 38.4915 83.8559C38.4915 83.8559 37.4807 83.519 37.4446 83.146C37.4446 83.158 38.6118 83.4107 39.5384 82.4721Z" fill="url(#paint10_linear)"/>
<path d="M92.3419 82.5082C92.3419 82.5082 88.6717 83.0015 87.6729 80.8597C87.6729 80.8597 89.0086 81.5816 90.6091 80.1738C90.6091 80.1738 88.2505 79.8489 87.4804 78.5132C87.4683 78.5012 87.4683 78.4891 87.4683 78.4651C87.4683 78.4651 89.2373 79.0427 90.3203 78.1643C90.3203 78.1643 87.4202 77.7672 86.2891 76.3232C86.2891 76.3232 87.3239 76.7564 88.3588 76.1427C88.3588 76.1427 86.8185 75.9502 86.0725 74.9996C86.0725 74.9996 87.7451 75.6132 88.8402 75.0357C88.8402 75.0357 87.0712 74.8191 86.0243 73.1104C86.0243 73.1104 86.8065 73.3631 87.697 72.9539C87.697 72.9539 85.6633 72.2921 84.7728 71.0768C84.7728 71.0768 86.2409 71.2573 86.6862 70.8481C86.6862 70.8481 84.2674 70.6676 83.1122 67.166C81.957 70.6556 79.8511 70.7158 79.8511 70.7158C80.2964 71.1249 81.2951 70.9083 81.2951 70.9083C80.4528 72.2801 78.4793 72.3523 78.4793 72.3523C79.2133 73.2427 80.5009 72.6892 80.5009 72.6892C79.466 74.3979 76.8668 74.8191 76.8668 74.8191C77.7693 75.541 79.803 75.0357 79.803 75.0357C79.0328 76.3232 76.9751 76.4556 76.9751 76.4556C78.5274 77.4302 79.9715 76.6601 79.9715 76.6601C78.3229 78.4169 76.0365 78.2124 76.0365 78.2124C76.8548 79.3676 78.5635 78.8501 78.5635 78.8501C78.5635 78.8622 78.5515 78.8742 78.5515 78.8983C77.9378 80.5348 75.0979 79.9331 75.0979 79.9331C76.3253 82.3638 79.0449 80.9198 79.0449 80.9198C78.0461 83.0617 73.6899 82.5804 73.6899 82.5804C74.7248 83.8078 75.9161 83.2302 75.9161 83.2302C75.88 83.6032 75.0618 84.0003 75.0618 84.0003C76.3012 84.9389 79.0449 83.7356 79.0449 83.7356C77.7332 85.5646 75.0618 85.7932 75.0618 85.7932C76.1929 86.792 79.7428 86.1061 79.7428 86.1061C79.442 86.6596 78.3469 86.8882 78.3469 86.8882C79.9835 87.3936 82.5105 87.2492 82.5105 87.2492V88.5247H83.1002H83.6898V87.2492C83.6898 87.2492 86.1086 87.2011 87.7331 86.6957C87.7331 86.6957 86.4094 86.3588 86.1086 85.8053C86.1086 85.8053 89.6825 86.8401 91.0423 85.1675C91.0423 85.1675 89.2974 85.4082 87.9858 83.5791C87.9858 83.5791 89.7186 84.5538 91.2709 83.904C91.2709 83.904 90.2481 83.5671 90.212 83.1941C90.224 83.2061 91.4033 83.4588 92.3419 82.5082Z" fill="url(#paint11_linear)"/>
<g filter="url(#filter1_d)">
<path d="M24.6759 96.0087C24.7962 95.9726 24.8925 96.0568 24.9647 96.2493L27.961 104.035C28.1295 104.396 28.2619 104.636 28.3581 104.745C28.5025 104.913 28.6349 105.021 28.7553 105.058C28.9478 105.106 29.1403 105.13 29.3329 105.13L29.381 105.178C29.381 105.274 29.3329 105.322 29.2486 105.322L28.8997 105.346C27.4195 105.346 26.6734 105.322 26.6614 105.262V105.166C26.7095 105.13 26.7697 105.106 26.8299 105.106C26.866 105.07 26.9021 105.021 26.9141 104.949L25.6506 101.52L25.5904 101.496H23.292L23.2078 101.616L22.6061 103.265L22.5219 103.614C22.5098 103.83 22.5459 103.95 22.6302 103.999L22.7625 104.047C23.0273 104.047 23.1837 104.059 23.2198 104.083C23.2559 104.167 23.2319 104.227 23.1717 104.251C22.4978 104.227 21.6555 104.227 20.6446 104.251L20.5845 104.191L20.5965 104.083L20.7048 104.047C20.9575 104.083 21.1861 104.023 21.4148 103.878C21.5833 103.746 21.7517 103.445 21.9322 102.976L24.4954 96.2854C24.5555 96.129 24.6157 96.0448 24.6759 96.0087ZM23.4846 100.894L23.4966 100.942H25.4581L24.4954 98.1746L24.4352 98.2348L23.4846 100.894Z" fill="url(#paint12_linear)"/>
<path d="M81.3061 98.0185C81.4144 97.9824 81.4986 98.0546 81.5588 98.2351L84.2784 105.274C84.4228 105.599 84.5431 105.816 84.6394 105.924C84.7718 106.081 84.8921 106.177 85.0004 106.213C85.1689 106.249 85.3494 106.273 85.5299 106.273L85.578 106.309C85.578 106.394 85.5419 106.442 85.4577 106.442L85.1448 106.466C83.8091 106.466 83.1352 106.442 83.1232 106.394V106.309C83.1713 106.273 83.2194 106.249 83.2796 106.249C83.3157 106.225 83.3398 106.177 83.3518 106.105L82.2086 103L82.1485 102.976H80.0546L79.9824 103.084L79.4409 104.577L79.3687 104.889C79.3567 105.082 79.3928 105.202 79.465 105.238L79.5853 105.287C79.826 105.287 79.9704 105.299 80.0065 105.311C80.0306 105.383 80.0185 105.431 79.9584 105.467C79.3446 105.455 78.5865 105.455 77.672 105.467L77.6118 105.407L77.6239 105.311L77.7201 105.287C77.9488 105.311 78.1654 105.262 78.3579 105.13C78.5143 105.01 78.6708 104.745 78.8272 104.312L81.1497 98.2592C81.1858 98.1389 81.2459 98.0546 81.3061 98.0185ZM80.2231 102.435L80.2351 102.483H82.0041L81.1256 99.9799L81.0654 100.04L80.2231 102.435Z" fill="url(#paint13_linear)"/>
<path d="M29.2366 95.7682C29.3209 95.7561 29.369 95.7682 29.4051 95.8163C29.4292 95.8283 29.6097 96.2014 29.9466 96.9474L31.8118 100.93L34.1704 95.8283C34.2185 95.7561 34.2907 95.7441 34.3629 95.7802C34.4111 95.8283 34.4351 95.8885 34.4472 95.9487L35.6505 104.709C35.7107 105.07 35.819 105.298 35.9514 105.395C36.0597 105.443 36.18 105.479 36.3003 105.503L36.6734 105.527L36.7095 105.563C36.7095 105.623 36.6734 105.659 36.6012 105.683C35.2053 105.683 34.5073 105.647 34.5073 105.563V105.503L34.6036 105.431C34.6397 105.407 34.6517 105.371 34.6517 105.334V105.07L33.7372 98.1026H33.7131L31.7637 102.314C31.6674 102.495 31.5952 102.579 31.5591 102.555C31.511 102.567 31.3786 102.362 31.162 101.929L30.3076 100.208L29.4171 98.2229L29.381 98.2109L28.9238 101.869C28.8877 102.098 28.9238 102.242 29.0321 102.302C29.1163 102.35 29.3209 102.386 29.6217 102.41C29.6698 102.447 29.6819 102.483 29.6578 102.519L29.5856 102.567C28.8636 102.555 28.2138 102.555 27.6362 102.567L27.576 102.507C27.564 102.459 27.576 102.435 27.6001 102.422L28.0092 102.374C28.1657 102.302 28.274 102.074 28.3221 101.676L29.1524 95.9366C29.1885 95.8163 29.2126 95.7682 29.2366 95.7682Z" fill="url(#paint14_linear)"/>
<path d="M35.5428 96.9116L36.2889 96.9357H37.0109L37.6848 96.9116L37.7811 96.9477C37.7931 97.0079 37.7811 97.044 37.757 97.056C37.5524 97.068 37.396 97.0921 37.2877 97.1402C37.1673 97.2004 37.1072 97.417 37.1192 97.778V102.11C37.1312 102.519 37.1673 102.748 37.2395 102.796L37.3358 102.868L37.9616 102.94C37.9977 102.964 37.9977 103 37.9736 103.048L37.8412 103.085L36.5175 103.061L35.5067 103.073L35.4465 103.024V102.964L35.4947 102.928C35.6872 102.928 35.8196 102.916 35.8918 102.88C35.976 102.844 36.0362 102.748 36.0603 102.603C36.1084 102.098 36.1204 101.773 36.1084 101.617L36.0964 97.4531C36.0723 97.3207 36.0362 97.2245 35.976 97.1643L35.8677 97.1041L35.4826 97.068C35.4345 97.044 35.4225 97.0079 35.4345 96.9477L35.5428 96.9116Z" fill="url(#paint15_linear)"/>
<path d="M41.33 96.0692C41.9918 96.0571 42.6055 96.0932 43.1831 96.1774C43.7607 96.2857 44.1217 96.3459 44.2902 96.3459C44.3384 96.3579 44.3745 96.382 44.3745 96.4301C44.3143 96.9355 44.2902 97.5372 44.3023 98.2351L44.2662 98.3073L44.2301 98.3193H44.1218L44.0977 98.2953C44.0495 97.85 43.9412 97.5492 43.7728 97.3928C43.5562 97.1642 43.2674 96.9716 42.9064 96.8272C42.6296 96.731 42.3649 96.6708 42.076 96.6106C41.8113 96.5745 41.4984 96.5625 41.1374 96.5986C39.6693 96.8032 38.8872 97.7417 38.8029 99.4143C38.7668 100.618 39.0797 101.592 39.7295 102.35C40.3191 102.988 41.0652 103.337 41.9798 103.397C42.3167 103.421 42.6055 103.397 42.8703 103.337C43.0147 103.301 43.123 103.205 43.1711 103.048V100.75C43.147 100.594 43.123 100.485 43.0869 100.437L42.9545 100.305C42.9064 100.257 42.6657 100.209 42.2445 100.184C42.2084 100.136 42.2084 100.088 42.2445 100.04L42.3649 100.004C43.3877 100.04 44.2782 100.04 45.0122 100.004C45.0844 100.016 45.1326 100.04 45.1687 100.088L45.1326 100.172L44.7114 100.233C44.6392 100.245 44.567 100.293 44.4828 100.401L44.4106 100.63L44.3985 103.241C44.3985 103.325 44.3745 103.385 44.3384 103.421C43.8329 103.722 43.123 103.891 42.2084 103.915C40.7042 103.951 39.537 103.614 38.6826 102.916C37.9124 102.278 37.5033 101.388 37.4431 100.257C37.395 99.0654 37.7199 98.0787 38.4299 97.2845C39.1278 96.5505 40.0905 96.1413 41.33 96.0692Z" fill="url(#paint16_linear)"/>
<path d="M48.4658 96.2978C49.0434 96.2738 49.5849 96.3339 50.0542 96.4904C51.3177 96.9476 51.9916 97.8742 52.0879 99.2941C52.124 100.425 51.7991 101.352 51.1132 102.074C50.7522 102.411 50.3791 102.663 49.982 102.808C49.633 102.94 49.26 103.012 48.8388 103.036C48.2973 103.048 47.8039 102.988 47.3587 102.832C46.1192 102.338 45.4333 101.352 45.2889 99.8717C45.2528 98.8368 45.5657 97.9704 46.2155 97.2605C46.8052 96.6709 47.5633 96.346 48.4658 96.2978ZM46.4442 99.1858C46.4321 99.4024 46.4442 99.6791 46.4803 100.028C46.5525 100.473 46.6728 100.87 46.8413 101.207C47.0699 101.653 47.3707 102.002 47.7438 102.242C48.0205 102.399 48.3455 102.507 48.7305 102.579C49.1276 102.603 49.4525 102.555 49.7173 102.435C50.4152 102.11 50.8003 101.376 50.8966 100.221C50.9447 99.1617 50.7522 98.3074 50.319 97.6816C49.9098 97.1281 49.3563 96.8032 48.6583 96.707C48.2372 96.6949 47.9002 96.7431 47.6475 96.8634C46.9014 97.2244 46.5043 98.0065 46.4442 99.1858Z" fill="url(#paint17_linear)"/>
<path d="M52.076 102.723C52.1241 102.711 52.1843 102.735 52.2324 102.784C52.2926 104.047 52.8341 104.757 53.8449 104.925C54.1698 104.986 54.5068 104.949 54.8557 104.853C55.3972 104.661 55.7342 104.24 55.8786 103.614C55.8906 103.373 55.8786 103.169 55.8425 102.988C55.8304 102.88 55.7582 102.687 55.6259 102.423L55.4093 102.11L54.7715 101.46C53.9893 100.858 53.4839 100.425 53.2553 100.172C52.9905 99.9196 52.7619 99.6188 52.5453 99.2698C52.0158 98.2109 52.0158 97.2724 52.5212 96.4421C53.0387 95.7321 53.7968 95.335 54.7956 95.2628C55.2528 95.2388 55.7703 95.2628 56.3358 95.3591C56.7811 95.4554 56.9977 95.5276 56.9857 95.5757L56.9496 96.4902V97.4168C56.9255 97.5611 56.8894 97.6334 56.8533 97.6334C56.745 97.6454 56.6969 97.6333 56.6969 97.5972L56.6006 97.0317C56.4441 96.5985 56.1553 96.2616 55.7342 96.045C55.4815 95.9247 55.1325 95.8886 54.6632 95.9126C53.9532 96.045 53.5441 96.4421 53.4358 97.1159V97.3927C53.4598 97.6093 53.52 97.7898 53.5922 97.9221L53.869 98.3192L54.3022 98.7524C55.2649 99.4985 55.8064 99.9437 55.9147 100.076C57.118 101.195 57.4911 102.435 57.0579 103.806C56.6006 104.913 55.662 105.515 54.254 105.623C53.869 105.635 53.52 105.623 53.1951 105.587C52.8702 105.539 52.6054 105.479 52.4249 105.407C52.1241 105.286 51.9677 105.214 51.9677 105.19L51.8834 105.034C51.8714 104.528 51.8955 103.854 51.9436 102.976C51.9677 102.856 52.0038 102.784 52.076 102.723Z" fill="url(#paint18_linear)"/>
<path d="M60.6083 100.281L61.6191 100.305L63.1955 100.281C63.6528 100.305 63.9536 100.329 64.1221 100.353C64.82 100.473 65.3736 100.762 65.7466 101.231C66.1076 101.712 66.3001 102.242 66.3242 102.844C66.3362 103.132 66.3122 103.421 66.252 103.698C65.903 105.118 64.8802 105.852 63.1835 105.9L62.3652 105.852L61.8838 105.816L60.6925 105.828L60.6323 105.792C60.6203 105.744 60.6323 105.72 60.6564 105.72L61.0054 105.683C61.0896 105.671 61.1498 105.575 61.1859 105.395C61.234 104.937 61.2461 104.649 61.234 104.504V100.942C61.222 100.738 61.1859 100.605 61.1257 100.545C61.0174 100.473 60.9332 100.437 60.8851 100.449L60.5842 100.437C60.5361 100.425 60.524 100.401 60.5361 100.365C60.5361 100.293 60.5722 100.269 60.6083 100.281ZM62.1245 101.099C62.1125 103.626 62.1245 104.973 62.1847 105.166C62.2328 105.359 62.4975 105.479 62.9548 105.539C63.376 105.563 63.7611 105.527 64.098 105.419C64.3387 105.334 64.5432 105.226 64.6997 105.082C64.9283 104.889 65.0968 104.661 65.2051 104.372C65.2653 104.191 65.3254 103.903 65.3736 103.481C65.3856 102.952 65.3375 102.543 65.2292 102.242C65.1449 101.977 65.0005 101.725 64.82 101.496C64.6756 101.327 64.5192 101.183 64.3387 101.063C63.9656 100.834 63.5084 100.69 62.9909 100.629C62.5697 100.617 62.305 100.629 62.1967 100.69L62.1365 100.75L62.1245 101.099Z" fill="url(#paint19_linear)"/>
<path d="M65.9752 99.2941C66.6611 99.3182 67.9487 99.3302 69.85 99.3182C70.1148 99.2941 70.2953 99.258 70.3795 99.2099C70.4276 99.1979 70.4637 99.2099 70.4637 99.258L70.3795 100.04L70.3554 100.594C70.3434 100.654 70.3193 100.702 70.2712 100.714L70.1749 100.666C70.1629 100.389 70.1268 100.209 70.0666 100.112C69.9824 100.016 69.8982 99.956 69.8139 99.9199C69.6214 99.8717 69.4168 99.8477 69.1882 99.8356L68.057 99.8236L68.045 99.8477L68.057 102.495L69.7177 102.483L70.0185 102.411L70.2231 102.206C70.2832 102.206 70.3193 102.23 70.3193 102.266C70.2592 102.687 70.2231 103.193 70.199 103.77C70.1749 103.843 70.1509 103.879 70.1268 103.879L70.0185 103.855C70.0065 103.566 69.9704 103.385 69.9102 103.289C69.8019 103.157 69.7056 103.097 69.6334 103.085C69.4288 103.036 68.8873 103.024 68.033 103.036V105.587C68.057 105.852 68.1413 106.021 68.2496 106.093C68.3699 106.153 68.5384 106.201 68.7429 106.225C69.4168 106.261 69.8741 106.225 70.1148 106.105L70.3193 105.924L70.4517 105.648L70.5119 105.311C70.548 105.226 70.6081 105.214 70.6683 105.251L70.7044 105.383C70.6924 105.648 70.6563 105.997 70.5961 106.418C70.548 106.731 70.3795 106.851 70.0787 106.779L67.6479 106.719L66.0595 106.731L65.9873 106.67C65.9752 106.61 65.9873 106.574 66.0113 106.562L66.4927 106.502C66.613 106.49 66.6972 106.358 66.7454 106.117C66.8055 105.503 66.8296 105.106 66.8055 104.914V100.124C66.7935 99.8477 66.7454 99.6672 66.6611 99.595C66.5167 99.4987 66.4084 99.4506 66.3362 99.4626L65.9151 99.4506C65.8549 99.4265 65.8308 99.3904 65.8429 99.3423C65.879 99.3062 65.9271 99.2821 65.9752 99.2941Z" fill="url(#paint20_linear)"/>
<path d="M73.5083 98.199C74.2905 98.2351 75.0606 98.2351 75.8067 98.199L75.9029 98.2471C75.915 98.3073 75.9029 98.3434 75.8789 98.3434L75.4577 98.3795L75.3013 98.4517C75.2291 98.5359 75.1809 98.6322 75.1809 98.7405L75.1569 99.7151V102.723C75.1689 103.277 75.205 103.614 75.2892 103.71C75.3494 103.806 75.566 103.879 75.939 103.915C76.4084 103.927 77.0822 103.915 77.1905 103.891C77.359 103.855 77.4793 103.794 77.5756 103.686C77.6719 103.542 77.7441 103.349 77.7802 103.108L77.8644 103.072C77.9125 103.096 77.9366 103.12 77.9246 103.157C77.8885 103.782 77.8283 104.167 77.7561 104.288C77.708 104.348 77.5515 104.384 77.2988 104.384L74.9403 104.336L73.5203 104.348L73.4601 104.3V104.24L73.5083 104.203C73.773 104.203 73.9415 104.167 73.9896 104.095C74.0859 103.963 74.134 103.65 74.134 103.169V98.9089C74.122 98.6803 74.0859 98.5359 74.0137 98.4637C73.9294 98.3915 73.7369 98.3434 73.412 98.3313C73.3879 98.2591 73.412 98.211 73.5083 98.199Z" fill="url(#paint21_linear)"/>
<path d="M88.3206 102.398C88.3688 102.386 88.4169 102.411 88.4771 102.459C88.5372 103.686 89.0667 104.384 90.0535 104.552C90.3784 104.601 90.7033 104.576 91.0402 104.48C91.5697 104.288 91.8946 103.879 92.039 103.265C92.051 103.036 92.039 102.832 92.0029 102.651C91.9909 102.543 91.9187 102.362 91.7863 102.098L91.5817 101.785L90.968 101.171C90.1979 100.581 89.7045 100.16 89.4879 99.9197C89.2352 99.679 89.0065 99.3782 88.802 99.0413C88.2845 98.0064 88.2845 97.0919 88.7779 96.2857C89.2833 95.5998 90.0174 95.2147 90.9921 95.1305C91.4373 95.1064 91.9427 95.1305 92.4963 95.2268C92.9295 95.311 93.1461 95.3832 93.1341 95.4313L93.098 96.3218V97.2243C93.0739 97.3687 93.0378 97.4409 93.0017 97.4409C92.8934 97.4529 92.8453 97.4409 92.8453 97.4048L92.749 96.8512C92.5925 96.4301 92.3158 96.1052 91.9066 95.8886C91.666 95.7803 91.317 95.7322 90.8597 95.7562C90.1738 95.8886 89.7647 96.2736 89.6684 96.9234V97.1882C89.6925 97.4048 89.7526 97.5732 89.8248 97.7056L90.0896 98.0906L90.5107 98.5118C91.4494 99.2458 91.9788 99.667 92.0871 99.7993C93.2544 100.894 93.6274 102.11 93.2063 103.433C92.761 104.516 91.8465 105.106 90.4746 105.202C90.1016 105.214 89.7526 105.202 89.4398 105.166C89.1148 105.118 88.8742 105.058 88.6937 104.998C88.4049 104.877 88.2484 104.805 88.2484 104.781L88.1642 104.637C88.1522 104.143 88.1762 103.481 88.2244 102.627C88.2123 102.519 88.2484 102.447 88.3206 102.398Z" fill="url(#paint22_linear)"/>
<path d="M93.496 98.0186L94.2541 98.0426H94.9761L95.65 98.0186L95.7463 98.0547C95.7583 98.1148 95.7463 98.1509 95.7222 98.1629C95.5176 98.175 95.3612 98.199 95.2529 98.2472C95.1326 98.3194 95.0724 98.5239 95.0844 98.8849V103.265C95.0965 103.674 95.1326 103.903 95.2048 103.951L95.301 104.023L95.9268 104.095C95.9629 104.119 95.9629 104.155 95.9388 104.204L95.8064 104.24L94.4707 104.216L93.4479 104.228L93.3877 104.179V104.119L93.4358 104.083C93.6284 104.083 93.7728 104.071 93.845 104.035C93.9292 103.999 93.9894 103.903 94.0134 103.758C94.0616 103.253 94.0856 102.916 94.0616 102.76L94.0495 98.548C94.0255 98.4156 93.9773 98.3194 93.9292 98.2472L93.8209 98.187L93.4238 98.1509C93.3757 98.1268 93.3516 98.0908 93.3757 98.0306L93.496 98.0186Z" fill="url(#paint23_linear)"/>
<path d="M95.1803 98.6442C95.8542 98.6683 97.1418 98.6803 99.031 98.6683C99.2958 98.6442 99.4763 98.6081 99.5605 98.56C99.6086 98.548 99.6447 98.56 99.6447 98.6081L99.5605 99.3903L99.5364 99.9438C99.5244 100.004 99.5003 100.052 99.4522 100.064L99.3559 100.016C99.3439 99.7392 99.3078 99.5587 99.2476 99.4745C99.1634 99.3783 99.0792 99.3181 98.9949 99.282C98.8144 99.2339 98.5978 99.2098 98.3692 99.1978L97.2501 99.1857L97.238 99.2098L97.2501 101.833L98.8987 101.821L99.1875 101.749L99.392 101.544C99.4522 101.544 99.4883 101.568 99.4883 101.604C99.4281 102.026 99.392 102.519 99.368 103.096C99.3439 103.169 99.3198 103.205 99.2958 103.205L99.1875 103.181C99.1754 102.892 99.1393 102.711 99.0792 102.627C98.9709 102.495 98.8746 102.435 98.8024 102.423C98.5978 102.374 98.0684 102.362 97.214 102.374V104.913C97.238 105.178 97.3223 105.347 97.4306 105.407C97.5509 105.467 97.7073 105.515 97.9239 105.539C98.5858 105.575 99.0431 105.539 99.2837 105.419L99.4883 105.238L99.6207 104.962L99.6808 104.625C99.7169 104.54 99.7771 104.528 99.8373 104.565L99.8734 104.697C99.8613 104.962 99.8253 105.311 99.7651 105.732C99.717 106.045 99.5485 106.165 99.2476 106.093L96.8289 106.033L95.2525 106.045L95.1803 105.984C95.1683 105.924 95.1803 105.888 95.2044 105.876L95.6857 105.816C95.806 105.804 95.8903 105.684 95.9384 105.431C95.9986 104.817 96.0226 104.42 95.9986 104.24V99.4745C95.9865 99.1978 95.9384 99.0293 95.8542 98.9451C95.7098 98.8488 95.6015 98.8007 95.5293 98.8127L95.1201 98.8007C95.06 98.7766 95.0359 98.7405 95.0479 98.6924C95.084 98.6683 95.1322 98.6322 95.1803 98.6442Z" fill="url(#paint24_linear)"/>
<path d="M99.32 95.3711L101.209 95.4072L102.473 95.3711C102.75 95.3831 103.014 95.4072 103.267 95.4673C103.796 95.6117 104.157 95.8163 104.362 96.0931C104.579 96.3698 104.711 96.7067 104.771 97.1038C104.783 97.6694 104.663 98.1387 104.41 98.5358C104.242 98.7885 104.097 98.969 103.977 99.1013L103.448 99.6067L105.975 102.832C106.396 103.337 106.697 103.662 106.877 103.794L107.046 103.915C107.286 104.083 107.611 104.179 108.008 104.191C108.068 104.227 108.08 104.288 108.02 104.36L107.852 104.396C107.322 104.408 106.817 104.396 106.324 104.36C106.035 104.324 105.758 104.191 105.493 103.963C105.241 103.746 104.964 103.421 104.663 103L102.593 100.172C102.533 100.076 102.461 100.028 102.389 100.016C101.811 99.9918 101.486 99.9918 101.402 100.016C101.366 101.4 101.402 103.217 101.498 103.65C101.582 103.806 101.642 103.89 101.703 103.89L102.437 103.987C102.473 104.095 102.461 104.143 102.377 104.155C101.245 104.131 100.247 104.131 99.4163 104.155L99.332 104.095C99.32 104.035 99.332 103.999 99.3681 103.987L99.8615 103.927C99.9819 103.915 100.078 103.782 100.126 103.517C100.186 102.868 100.21 101.544 100.186 101.352V96.2976C100.174 96.0088 100.126 95.8163 100.03 95.7321C99.8735 95.6238 99.7532 95.5756 99.681 95.5877L99.2478 95.5756C99.1876 95.5516 99.1636 95.5155 99.1636 95.4673C99.2237 95.3831 99.2719 95.359 99.32 95.3711ZM101.414 95.9727V99.33C101.462 99.4022 101.667 99.4623 102.016 99.4984C102.364 99.5225 102.617 99.4984 102.798 99.4383C103.255 99.1735 103.508 98.6561 103.568 97.886C103.58 96.7428 103.135 96.069 102.22 95.8765C101.751 95.8524 101.486 95.8765 101.414 95.9727Z" fill="url(#paint25_linear)"/>
<path d="M113.941 105.575C113.556 105.551 113.243 105.467 113.014 105.31L112.846 105.19C112.677 105.058 112.388 104.757 111.979 104.264L109.392 100.786L109.897 100.305C110.018 100.184 110.162 100.004 110.319 99.7632C110.559 99.3781 110.668 98.9208 110.655 98.3914C110.607 98.0063 110.475 97.6814 110.27 97.4167C110.078 97.164 109.729 96.9594 109.223 96.8151C108.983 96.7669 108.73 96.7308 108.465 96.7308L107.25 96.7549L105.445 96.7308C105.397 96.7188 105.349 96.7549 105.313 96.8151C105.301 96.8632 105.325 96.8993 105.385 96.9233L105.806 96.9354C105.878 96.9233 105.986 96.9715 106.131 97.0677C106.215 97.1399 106.275 97.3204 106.275 97.6092V100.882C106.287 101.051 106.275 101.436 106.239 101.953C106.215 102.266 106.047 102.266 105.938 102.206L105.794 102.182C105.758 102.17 105.734 102.194 105.71 102.254C105.734 102.314 105.77 102.362 105.83 102.398C106.48 102.783 106.985 103.108 107.864 103.674C107.936 103.71 107.984 103.674 107.996 103.566L107.671 103.289C107.635 103.265 107.479 103.181 107.491 103.012C107.467 102.627 107.443 102.242 107.443 102.242C107.443 101.833 107.443 101.207 107.443 101.207C107.527 101.183 107.84 101.183 108.381 101.207C108.453 101.219 108.514 101.267 108.574 101.352L110.728 104.456C111.016 104.865 111.281 105.178 111.522 105.383C111.775 105.587 112.039 105.72 112.316 105.756C112.785 105.78 113.267 105.792 113.784 105.78L113.953 105.756C114.013 105.671 114.001 105.611 113.941 105.575ZM108.778 100.63C108.61 100.69 108.357 100.714 108.032 100.69C107.695 100.654 107.503 100.593 107.455 100.521V97.3084C107.527 97.2242 107.779 97.1881 108.237 97.2242C109.103 97.4167 109.536 98.0545 109.524 99.1495C109.464 99.8835 109.211 100.377 108.778 100.63Z" fill="url(#paint26_linear)"/>
<path d="M115.108 95.8768C115.216 95.8407 115.3 95.9129 115.36 96.0813L118.068 103.121C118.212 103.446 118.333 103.65 118.417 103.758C118.549 103.915 118.658 103.999 118.766 104.047C118.934 104.083 119.103 104.107 119.283 104.107L119.332 104.143C119.332 104.228 119.295 104.264 119.223 104.264L118.922 104.288C117.599 104.288 116.937 104.264 116.937 104.216V104.131C116.985 104.095 117.033 104.071 117.093 104.071C117.129 104.047 117.153 103.999 117.166 103.927L116.01 100.762L115.95 100.738H113.892L113.82 100.846L113.291 102.314L113.218 102.627C113.206 102.82 113.243 102.928 113.315 102.964L113.423 103.012C113.664 103.012 113.796 103.024 113.832 103.036C113.856 103.109 113.844 103.157 113.784 103.193C113.182 103.181 112.436 103.181 111.534 103.193L111.474 103.133L111.486 103.036L111.582 103.012C111.811 103.036 112.015 102.988 112.208 102.856C112.352 102.736 112.509 102.471 112.665 102.05L114.951 96.0934C114.999 95.9851 115.048 95.9129 115.108 95.8768ZM114.049 100.221L114.061 100.269H115.806L114.939 97.8141L114.879 97.8742L114.049 100.221Z" fill="url(#paint27_linear)"/>
<path d="M125.397 96.9356C125.493 96.8995 125.577 96.9717 125.649 97.1402L127.912 102.976C128.056 103.289 128.164 103.494 128.249 103.59C128.381 103.734 128.489 103.831 128.585 103.867C128.754 103.903 128.922 103.927 129.091 103.927L129.139 103.963C129.139 104.047 129.103 104.083 129.031 104.083L128.73 104.095C127.442 104.095 126.792 104.071 126.78 104.023V103.939C126.829 103.903 126.877 103.891 126.937 103.891C126.973 103.867 126.997 103.819 127.009 103.758L126.263 101.713L126.215 101.689H124.205L124.133 101.797L123.279 104.059L123.206 104.36C123.194 104.541 123.231 104.661 123.303 104.697L123.411 104.745C123.652 104.745 123.784 104.757 123.808 104.769C123.832 104.841 123.82 104.889 123.76 104.914C123.17 104.902 122.436 104.902 121.558 104.914L121.51 104.865L121.522 104.769L121.618 104.745C121.835 104.769 122.039 104.721 122.232 104.589C122.376 104.48 122.533 104.216 122.677 103.794L125.24 97.1522C125.288 97.0439 125.336 96.9717 125.397 96.9356ZM124.35 101.183L124.362 101.231H126.07L125.228 98.8248L125.18 98.8729L124.35 101.183Z" fill="url(#paint28_linear)"/>
<path d="M129.584 103.59C129.584 103.65 129.56 103.698 129.524 103.734C129.476 103.77 129.428 103.795 129.367 103.795C129.319 103.795 129.271 103.77 129.235 103.734C129.199 103.698 129.175 103.65 129.175 103.59C129.175 103.554 129.187 103.518 129.199 103.494C129.223 103.458 129.247 103.434 129.271 103.422C129.295 103.409 129.331 103.397 129.367 103.397C129.403 103.397 129.44 103.409 129.476 103.422C129.512 103.446 129.536 103.47 129.548 103.494C129.572 103.518 129.584 103.554 129.584 103.59Z" fill="url(#paint29_linear)"/>
<path d="M137.526 103.59C137.526 103.65 137.502 103.698 137.466 103.734C137.418 103.77 137.37 103.795 137.31 103.795C137.262 103.795 137.213 103.77 137.177 103.734C137.141 103.698 137.117 103.65 137.117 103.59C137.117 103.554 137.129 103.518 137.141 103.494C137.165 103.458 137.189 103.434 137.213 103.422C137.238 103.409 137.274 103.397 137.31 103.397C137.346 103.397 137.382 103.409 137.418 103.422C137.454 103.446 137.478 103.47 137.49 103.494C137.514 103.518 137.526 103.554 137.526 103.59Z" fill="url(#paint30_linear)"/>
<path d="M133.447 96.9354C133.88 96.9114 134.457 96.9354 135.192 97.0317C135.697 97.14 136.01 97.2002 136.106 97.2002L136.166 97.2724L136.106 97.9342L136.094 98.8607C136.082 98.9811 136.058 99.0412 136.01 99.0533L135.914 99.0412L135.865 98.8848C135.841 98.2591 135.528 97.8259 134.903 97.5973C134.397 97.4047 133.832 97.3446 133.206 97.4168C132.809 97.4769 132.496 97.5852 132.243 97.7417C132.051 97.862 131.882 98.0304 131.714 98.223C131.365 98.6923 131.16 99.3421 131.112 100.16C131.088 100.714 131.148 101.195 131.281 101.604C131.389 101.941 131.545 102.266 131.762 102.567C132.316 103.265 132.989 103.662 133.784 103.758C134.169 103.782 134.53 103.758 134.843 103.698C135.167 103.626 135.396 103.505 135.54 103.361L135.769 103.096C135.889 102.868 135.974 102.663 135.998 102.471C136.082 102.386 136.142 102.398 136.178 102.495C136.178 102.759 136.118 103.157 136.01 103.722C135.986 103.879 135.938 103.987 135.865 104.035C135.649 104.179 135.143 104.276 134.349 104.312C133.471 104.324 132.773 104.227 132.243 104.047C131.473 103.782 130.859 103.337 130.414 102.687C130.053 102.158 129.849 101.52 129.813 100.75C129.8 100.088 129.897 99.5346 130.077 99.0894C130.113 98.969 130.234 98.7524 130.438 98.4275C131.148 97.501 132.147 96.9956 133.447 96.9354Z" fill="url(#paint31_linear)"/>
</g>
</g>
<defs>
<filter id="filter0_d" x="0.0754719" y="0.0754719" width="155.849" height="155.849" filterUnits="userSpaceOnUse" color-interpolation-filters="sRGB">
<feFlood flood-opacity="0" result="BackgroundImageFix"/>
<feColorMatrix in="SourceAlpha" type="matrix" values="0 0 0 0 0 0 0 0 0 0 0 0 0 0 0 0 0 0 127 0"/>
<feOffset/>
<feGaussianBlur stdDeviation="3.96226"/>
<feColorMatrix type="matrix" values="0 0 0 0 0 0 0 0 0 0 0 0 0 0 0 0 0 0 0.2 0"/>
<feBlend mode="normal" in2="BackgroundImageFix" result="effect1_dropShadow"/>
<feBlend mode="normal" in="SourceGraphic" in2="effect1_dropShadow" result="shape"/>
</filter>
<filter id="filter1_d" x="18.9996" y="93.5369" width="120.112" height="14.847" filterUnits="userSpaceOnUse" color-interpolation-filters="sRGB">
<feFlood flood-opacity="0" result="BackgroundImageFix"/>
<feColorMatrix in="SourceAlpha" type="matrix" values="0 0 0 0 0 0 0 0 0 0 0 0 0 0 0 0 0 0 127 0"/>
<feOffset/>
<feGaussianBlur stdDeviation="0.792453"/>
<feColorMatrix type="matrix" values="0 0 0 0 0 0 0 0 0 0 0 0 0 0 0 0 0 0 0.2 0"/>
<feBlend mode="normal" in2="BackgroundImageFix" result="effect1_dropShadow"/>
<feBlend mode="normal" in="SourceGraphic" in2="effect1_dropShadow" result="shape"/>
</filter>
<radialGradient id="paint0_radial" cx="0" cy="0" r="1" gradientUnits="userSpaceOnUse" gradientTransform="translate(78 78) rotate(90) scale(70)">
<stop offset="0.432292" stop-color="white"/>
<stop offset="1" stop-color="#EFEFEF" stop-opacity="0"/>
</radialGradient>
<linearGradient id="paint1_linear" x1="19.8588" y1="56.1963" x2="138.783" y2="56.1963" gradientUnits="userSpaceOnUse">
<stop offset="0.0229049" stop-color="#846223"/>
<stop offset="0.2553" stop-color="#D0AD00"/>
<stop offset="0.5011" stop-color="#846223"/>
<stop offset="0.6575" stop-color="#D0AD00"/>
<stop offset="1" stop-color="#846223"/>
</linearGradient>
<linearGradient id="paint2_linear" x1="113.722" y1="53.4523" x2="113.722" y2="88.2254" gradientUnits="userSpaceOnUse">
<stop stop-color="#9BB429"/>
<stop offset="1" stop-color="#668B00"/>
</linearGradient>
<linearGradient id="paint3_linear" x1="92.6101" y1="50.628" x2="92.6101" y2="83.5972" gradientUnits="userSpaceOnUse">
<stop stop-color="#454F1D"/>
<stop offset="0.2493" stop-color="#39431C"/>
<stop offset="0.6499" stop-color="#2C351B"/>
<stop offset="1" stop-color="#28301B"/>
</linearGradient>
<linearGradient id="paint4_linear" x1="61.7525" y1="53.3281" x2="61.7525" y2="88.2258" gradientUnits="userSpaceOnUse">
<stop stop-color="#9BB429"/>
<stop offset="1" stop-color="#668B00"/>
</linearGradient>
<linearGradient id="paint5_linear" x1="73.8288" y1="58.9776" x2="73.8288" y2="84.6743" gradientUnits="userSpaceOnUse">
<stop stop-color="#454F1D"/>
<stop offset="0.2493" stop-color="#39431C"/>
<stop offset="0.6499" stop-color="#2C351B"/>
<stop offset="1" stop-color="#28301B"/>
</linearGradient>
<linearGradient id="paint6_linear" x1="40.439" y1="50.8576" x2="40.439" y2="83.5972" gradientUnits="userSpaceOnUse">
<stop stop-color="#454F1D"/>
<stop offset="0.2493" stop-color="#39431C"/>
<stop offset="0.6499" stop-color="#2C351B"/>
<stop offset="1" stop-color="#28301B"/>
</linearGradient>
<linearGradient id="paint7_linear" x1="125.998" y1="58.9776" x2="125.998" y2="84.6743" gradientUnits="userSpaceOnUse">
<stop stop-color="#454F1D"/>
<stop offset="0.2493" stop-color="#39431C"/>
<stop offset="0.6499" stop-color="#2C351B"/>
<stop offset="1" stop-color="#28301B"/>
</linearGradient>
<linearGradient id="paint8_linear" x1="102.033" y1="67.4505" x2="102.033" y2="93.2042" gradientUnits="userSpaceOnUse">
<stop stop-color="#637E2D"/>
<stop offset="1" stop-color="#506031"/>
</linearGradient>
<linearGradient id="paint9_linear" x1="49.8267" y1="66.509" x2="49.8267" y2="92.2058" gradientUnits="userSpaceOnUse">
<stop stop-color="#637E2D"/>
<stop offset="1" stop-color="#506031"/>
</linearGradient>
<linearGradient id="paint10_linear" x1="30.3152" y1="67.338" x2="30.3152" y2="88.4335" gradientUnits="userSpaceOnUse">
<stop stop-color="#90A732"/>
<stop offset="1" stop-color="#7C9B33"/>
</linearGradient>
<linearGradient id="paint11_linear" x1="73.6702" y1="77.8645" x2="92.3406" y2="77.8645" gradientUnits="userSpaceOnUse">
<stop stop-color="#90A732"/>
<stop offset="1" stop-color="#7C9B33"/>
</linearGradient>
<linearGradient id="paint12_linear" x1="24.9867" y1="105.329" x2="24.9867" y2="95.9968" gradientUnits="userSpaceOnUse">
<stop stop-color="#C2910E"/>
<stop offset="1" stop-color="#846223"/>
</linearGradient>
<linearGradient id="paint13_linear" x1="81.5787" y1="106.458" x2="81.5787" y2="98.0143" gradientUnits="userSpaceOnUse">
<stop stop-color="#C2910E"/>
<stop offset="1" stop-color="#846223"/>
</linearGradient>
<linearGradient id="paint14_linear" x1="32.1358" y1="105.674" x2="32.1358" y2="95.7558" gradientUnits="userSpaceOnUse">
<stop stop-color="#C2910E"/>
<stop offset="1" stop-color="#846223"/>
</linearGradient>
<linearGradient id="paint15_linear" x1="36.7145" y1="103.09" x2="36.7145" y2="96.9121" gradientUnits="userSpaceOnUse">
<stop stop-color="#C2910E"/>
<stop offset="1" stop-color="#846223"/>
</linearGradient>
<linearGradient id="paint16_linear" x1="41.3221" y1="103.93" x2="41.3221" y2="96.0718" gradientUnits="userSpaceOnUse">
<stop stop-color="#C2910E"/>
<stop offset="1" stop-color="#846223"/>
</linearGradient>
<linearGradient id="paint17_linear" x1="48.6936" y1="103.035" x2="48.6936" y2="96.2866" gradientUnits="userSpaceOnUse">
<stop stop-color="#C2910E"/>
<stop offset="1" stop-color="#846223"/>
</linearGradient>
<linearGradient id="paint18_linear" x1="54.5624" y1="105.612" x2="54.5624" y2="95.2646" gradientUnits="userSpaceOnUse">
<stop stop-color="#C2910E"/>
<stop offset="1" stop-color="#846223"/>
</linearGradient>
<linearGradient id="paint19_linear" x1="63.4169" y1="105.904" x2="63.4169" y2="100.278" gradientUnits="userSpaceOnUse">
<stop stop-color="#C2910E"/>
<stop offset="1" stop-color="#846223"/>
</linearGradient>
<linearGradient id="paint20_linear" x1="68.2736" y1="106.81" x2="68.2736" y2="99.2126" gradientUnits="userSpaceOnUse">
<stop stop-color="#C2910E"/>
<stop offset="1" stop-color="#846223"/>
</linearGradient>
<linearGradient id="paint21_linear" x1="75.6659" y1="104.4" x2="75.6659" y2="98.1941" gradientUnits="userSpaceOnUse">
<stop stop-color="#C2910E"/>
<stop offset="1" stop-color="#846223"/>
</linearGradient>
<linearGradient id="paint22_linear" x1="90.7476" y1="105.21" x2="90.7476" y2="95.1083" gradientUnits="userSpaceOnUse">
<stop stop-color="#C2910E"/>
<stop offset="1" stop-color="#846223"/>
</linearGradient>
<linearGradient id="paint23_linear" x1="94.6757" y1="104.259" x2="94.6757" y2="98.0143" gradientUnits="userSpaceOnUse">
<stop stop-color="#C2910E"/>
<stop offset="1" stop-color="#846223"/>
</linearGradient>
<linearGradient id="paint24_linear" x1="97.4706" y1="106.123" x2="97.4706" y2="98.5663" gradientUnits="userSpaceOnUse">
<stop stop-color="#C2910E"/>
<stop offset="1" stop-color="#846223"/>
</linearGradient>
<linearGradient id="paint25_linear" x1="103.618" y1="104.4" x2="103.618" y2="95.3643" gradientUnits="userSpaceOnUse">
<stop stop-color="#C2910E"/>
<stop offset="1" stop-color="#846223"/>
</linearGradient>
<linearGradient id="paint26_linear" x1="109.649" y1="105.771" x2="109.649" y2="96.7281" gradientUnits="userSpaceOnUse">
<stop stop-color="#C2910E"/>
<stop offset="1" stop-color="#846223"/>
</linearGradient>
<linearGradient id="paint27_linear" x1="115.401" y1="104.28" x2="115.401" y2="95.8679" gradientUnits="userSpaceOnUse">
<stop stop-color="#C2910E"/>
<stop offset="1" stop-color="#846223"/>
</linearGradient>
<linearGradient id="paint28_linear" x1="125.319" y1="104.914" x2="125.319" y2="96.926" gradientUnits="userSpaceOnUse">
<stop stop-color="#C2910E"/>
<stop offset="1" stop-color="#846223"/>
</linearGradient>
<linearGradient id="paint29_linear" x1="129.379" y1="103.8" x2="129.379" y2="103.391" gradientUnits="userSpaceOnUse">
<stop stop-color="#C2910E"/>
<stop offset="1" stop-color="#846223"/>
</linearGradient>
<linearGradient id="paint30_linear" x1="137.319" y1="103.8" x2="137.319" y2="103.391" gradientUnits="userSpaceOnUse">
<stop stop-color="#C2910E"/>
<stop offset="1" stop-color="#846223"/>
</linearGradient>
<linearGradient id="paint31_linear" x1="133.012" y1="104.326" x2="133.012" y2="96.9258" gradientUnits="userSpaceOnUse">
<stop stop-color="#C2910E"/>
<stop offset="1" stop-color="#846223"/>
</linearGradient>
</defs>
</svg>
