<svg width="274" height="270" viewBox="0 0 274 270" fill="none" xmlns="http://www.w3.org/2000/svg">
<path d="M138.7 265.3C210.828 265.3 269.3 206.828 269.3 134.7C269.3 62.5712 210.828 4.09961 138.7 4.09961C66.5712 4.09961 8.09961 62.5712 8.09961 134.7C8.09961 206.828 66.5712 265.3 138.7 265.3Z" fill="#E6AA68"/>
<path d="M137.4 112.7L122.4 141.3L128.6 141.9L114.7 169.9L120.5 171.4L113.5 185.2L157 201.5L168.8 195.3L155.1 172.2L163.4 171.3C163.4 171.3 146.9 141.5 147.1 141.9C147.2 142.3 155.2 141.9 155.2 141.9L137.4 112.7Z" fill="#58AA96"/>
<path d="M78.1 130.7L63.5 156.7L70.8 155.3L58 180.2C58 180.2 61.7 180.8 61.7 181.1C61.7 181.3 58.8 190.7 58.8 190.7L91.6 178L97.1 179.1L86.3 156L92.6 155.3L78.1 130.7Z" fill="#58AA96"/>
<path d="M74.7002 138L80.7002 148.2H76.9002L88.9002 178L97.1002 179.1L85.6002 156L92.7002 155.3L77.8002 130.1L74.7002 138Z" fill="#018E7D"/>
<path d="M26.8002 143.801L12.2002 168.901L19.9002 169.901C19.9002 169.901 13.9002 178.001 14.1002 178.101C14.2002 178.301 26.1002 200.201 26.1002 200.201C26.1002 200.201 47.1002 193.301 46.9002 193.301C46.7002 193.401 34.8002 169.801 34.8002 169.801L40.4002 170.501L26.8002 143.801Z" fill="#58AA96"/>
<path d="M25.6004 145.6L22.4004 153.2L30.9004 164.9H24.4004L40.3004 196C40.3004 196 47.0004 192.4 46.9004 192.3C46.9004 192.2 35.4004 169.9 35.4004 169.9L39.7004 170L25.6004 145.6Z" fill="#018E7D"/>
<path d="M197.4 142.7L184.1 166.8C184.1 166.8 190.4 166.5 190.4 166.8C190.4 167.1 176.8 192.5 176.8 192.5L210.7 178.1L205.2 166.6L211.2 167.1L197.4 142.7Z" fill="#58AA96"/>
<path d="M194.6 148.601L202 160.401H196.6L205.1 178.701L210.5 177.201L205.5 166.001L212 167.301L197.3 140.301L194.6 148.601Z" fill="#018E7D"/>
<path d="M245.9 134.7L232.8 160.2L239 160.7L227.3 183.3L255.6 193.6L262 177.7L253.8 161.2L260.6 160.7L245.9 134.7Z" fill="#58AA96"/>
<path d="M245.5 134.7L259.8 161.5C259.8 161.5 253.2 161 253.2 161.2C253.3 161.4 262.2 178.7 262.2 178.7L258.6 188.1L245.2 156.1H251.3L243.2 142L245.5 134.7Z" fill="#018E7D"/>
<path d="M134.4 119L134.5 119.2L144.1 136.3H137.8L153.8 166.2H144.1L159.3 199.1L168.6 195.9L156 171.4L162.9 170.9C162.9 170.9 146.7 141 147.1 141.4C147.4 141.7 154.8 141.2 154.8 141.2L137.3 112.6" fill="#018E7D"/>
<path d="M26.0996 200.4L91.5996 177.9L156.9 201.5L208.7 177.9L256.6 193.1C256.6 193.1 220.9 266 145.9 266C70.8996 266 30.9996 216.9 26.0996 200.4Z" fill="#BFBB52"/>
<path d="M197.4 183.1C197.4 183.1 245.5 212.1 244.7 211C243.9 209.9 256.6 193.2 256.6 193.2L207.8 176.5L197.4 183.1Z" fill="#AAA346"/>
<path d="M79.7002 181.9L80.5002 182.2L146.6 206L157.4 200.4L92.9002 177.1" fill="#AAA346"/>
<path d="M202.3 96.5L197.4 102L206 126.3L223.4 115.4L246.8 121.6L242.2 100.6L202.3 96.5Z" fill="#BFBB52"/>
<path d="M75.3004 96.5L80.3004 102L71.6004 126.3L54.2004 115.4L30.9004 121.6L35.5004 100.6L75.3004 96.5Z" fill="#BFBB52"/>
<path d="M71.2998 127.1C70.6998 127.1 70.1998 126.9 69.6998 126.6L52.8998 116.6L32.9998 123C31.9998 123.3 30.8998 123.1 29.9998 122.4C29.1998 121.7 28.6998 120.7 28.7998 119.6L28.8998 118.8C28.8998 118.7 28.8998 118.7 28.8998 118.6C31.8998 99.9998 39.4998 82.1998 50.8998 67.0998C51.4998 66.2998 52.3998 65.7998 53.4998 65.7998C54.4998 65.7998 55.4998 66.2998 56.0998 67.0998L80.7998 101.5C81.4998 102.5 81.5998 103.7 80.9998 104.8C77.8998 110.9 75.5998 117.4 74.3998 124.1C74.2998 125.2 73.6998 126.1 72.6998 126.6C72.2998 127 71.7998 127.1 71.2998 127.1ZM52.8998 113.1C53.4998 113.1 53.9998 113.3 54.4998 113.5L70.9998 123.3C72.2998 116.4 74.5998 109.8 77.7998 103.5L53.4998 69.5998C42.5998 84.1998 35.2998 101.3 32.4998 119.1V119.4L51.9998 113.2C52.2998 113.1 52.5998 113.1 52.8998 113.1Z" fill="#255457"/>
<path d="M205.9 127.1C205.4 127.1 204.9 127 204.4 126.7C203.4 126.2 202.8 125.2 202.7 124.1C201.5 117.4 199.2 110.9 196.1 104.8C195.5 103.7 195.6 102.5 196.3 101.5L221 67.0998C221.6 66.2998 222.5 65.7998 223.6 65.7998C224.6 65.7998 225.6 66.1998 226.2 67.0998C237.6 82.1998 245.2 99.9998 248.2 118.6C248.2 118.7 248.2 118.8 248.2 118.8L248.3 119.6C248.4 120.7 248 121.7 247.1 122.4C246.3 123.1 245.2 123.3 244.1 123L224.2 116.6L207.4 126.6C207 126.9 206.4 127.1 205.9 127.1ZM199.4 103.5C202.6 109.8 204.9 116.4 206.2 123.3L222.7 113.5C223.5 113 224.4 112.9 225.3 113.2L244.8 119.4V119.1C242 101.2 234.7 84.0998 223.8 69.5998L199.4 103.5Z" fill="#255457"/>
<path d="M31.6999 101.2C29.7999 100.8 28.6999 98.9 29.2999 97C43.2999 49.9 86.8999 15.5 138.6 15.5C190.4 15.5 234.1 50.1 248 97.4C248.5 99.2 247.4 101.1 245.6 101.6L210.8 109.8C209.1 110.2 207.4 109.2 206.9 107.6C197.6 78.7 170.6 57.8 138.6 57.8C106.9 57.8 79.9999 78.4 70.4999 106.9C69.9999 108.5 68.2999 109.5 66.5999 109.1L31.6999 101.2Z" fill="#F4D35E"/>
<path d="M210 111.7C207.8 111.7 205.8 110.3 205.1 108.2C195.8 79.2 169 59.6 138.5 59.6C108.3 59.6 81.5998 78.8 72.0998 107.5C71.2998 110 68.6998 111.4 66.1998 110.9L31.2998 103.1C29.8998 102.8 28.6998 101.9 27.9998 100.7C27.2998 99.5 27.0998 98 27.4998 96.7C34.3998 73.3 48.9998 52.2 68.5998 37.4C88.7998 22.1 113 14 138.4 14C163.9 14 188.1 22.1 208.4 37.6C228 52.5 242.6 73.7 249.5 97.2C249.9 98.5 249.7 100 249 101.2C248.3 102.4 247.1 103.3 245.8 103.6L211 111.8C210.7 111.6 210.3 111.7 210 111.7ZM138.5 56C170.6 56 198.7 76.5 208.5 107C208.7 107.8 209.5 108.2 210.3 108L245.1 99.8C245.5 99.7 245.9 99.4 246.1 99.1C246.3 98.7 246.4 98.3 246.2 97.9C232.3 50.4 188 17.3 138.5 17.3C89.1998 17.3 44.8998 50.3 30.8998 97.5C30.7998 97.9 30.7998 98.3 30.9998 98.7C31.1998 99.1 31.5998 99.3 31.9998 99.4L66.8998 107.2C67.6998 107.4 68.3998 106.9 68.6998 106.2C78.7998 76.2 106.8 56 138.5 56Z" fill="#255457"/>
<path d="M66.6998 83.4997L68.6998 86.5997L65.8998 90.5997L55.2998 73.1997L58.0998 69.1997L77.8998 73.4997L74.9998 77.5997L71.3998 76.6997L66.6998 83.4997ZM60.4998 74.0997L64.5998 80.2997L67.6998 75.8997L60.4998 74.0997Z" fill="#255457"/>
<path d="M93.7994 60.5992L86.3994 50.9992L89.0994 61.8992L86.5994 63.7992L76.7994 58.3992L84.1994 67.9992L80.7994 70.5992L69.3994 55.7992L73.4994 52.5992L84.2994 58.2992L81.4994 46.3992L85.5994 43.1992L96.9994 57.9992L93.7994 60.5992Z" fill="#255457"/>
<path d="M103.1 55.5L95.5 38.4L99.8 36.5L107.4 53.6L103.1 55.5Z" fill="#255457"/>
<path d="M127.6 38.1995L129.1 45.2995C127.4 47.0995 124.6 48.7995 122 49.2995C116.4 50.4995 111.4 47.3995 110.2 42.0995C109.1 36.7995 112.5 31.8995 118.3 30.6995C121 30.0995 124.1 30.4995 126.3 31.7995L124.4 35.4995C122.8 34.5995 120.8 34.1995 119.1 34.5995C116.1 35.1995 114.3 38.0995 115 41.0995C115.7 44.1995 118.5 46.0995 121.5 45.3995C122.4 45.1995 123.6 44.5995 124.5 43.7995L123.5 39.0995L127.6 38.1995Z" fill="#255457"/>
<path d="M154.999 39.0997C154.599 44.4997 149.999 48.2997 144.199 47.8997C138.499 47.4997 134.399 43.0997 134.799 37.5997C135.199 32.1997 139.799 28.4997 145.499 28.8997C151.399 29.2997 155.399 33.6997 154.999 39.0997ZM139.699 37.9996C139.499 41.0996 141.699 43.6997 144.599 43.8997C147.499 44.0997 149.899 41.7997 150.199 38.6997C150.399 35.5997 148.299 32.9997 145.399 32.7997C142.499 32.6997 139.999 34.8996 139.699 37.9996Z" fill="#255457"/>
<path d="M178.599 38.9001L175.699 41.8001C174.199 40.1001 172.099 38.5 170.699 38C169.499 37.6 168.599 37.7 168.299 38.6C167.199 41.6 177.099 43.2 174.899 49.6C173.699 53.1 169.899 53.9 165.999 52.5C163.099 51.5 160.399 49.3001 158.899 46.8001L161.899 44C163.199 46.2 165.499 48.2001 167.299 48.9001C168.699 49.4001 169.799 49.2 170.099 48.2C171.199 45.1 161.199 43.7001 163.399 37.4001C164.499 34.2001 168.099 33.1 172.299 34.6C174.899 35.3 177.199 37.0001 178.599 38.9001Z" fill="#255457"/>
<path d="M204 53.1994C208.4 57.0994 209 62.5994 205.3 66.7994C201.7 70.9994 196.1 71.0994 191.5 67.1994L185.6 61.9994L197.9 47.8994L204 53.1994ZM191.8 62.2994L194.4 64.4994C196.6 66.3994 199.6 66.0994 201.8 63.5994C204 61.0994 203.8 57.9994 201.5 55.9994L199.1 53.8994L191.8 62.2994Z" fill="#255457"/>
<path d="M217.4 73.4996L214.3 75.5996L219.2 82.9996L216.1 85.0996L211.2 77.6996L208.1 79.7996L213.7 88.2996L210.6 90.3996L202.3 77.9996L217.8 67.5996L225.9 79.7996L222.8 81.8996L217.4 73.4996Z" fill="#255457"/>
<path d="M65.2996 198.6L68.8996 202.9L57.0996 212.8L63.1996 220.1L59.7996 223L50.0996 211.4L65.2996 198.6Z" fill="#255457"/>
<path d="M79.7998 234.2L72.9998 229.3L69.4998 231.5L64.7998 228.1L83.5998 217.1L88.0998 220.3L83.5998 241.6L78.7998 238.2L79.7998 234.2ZM80.8998 229.9L82.5998 223.2L76.7998 226.9L80.8998 229.9Z" fill="#255457"/>
<path d="M103.5 248.4L106.3 244.8C107.7 246.4 110 247.7 112.2 248.3C114.5 248.9 115.5 248.4 115.7 247.5C116.5 244.4 104.9 243.9 106.7 236.8C107.6 233.3 111.1 231.2 116.8 232.7C119.3 233.3 121.8 234.6 123.4 236.1L120.7 239.7C119.1 238.2 117.4 237.3 115.7 236.9C113.4 236.3 112.4 236.9 112.1 237.9C111.4 240.9 122.9 241.4 121.1 248.5C120.3 251.9 116.7 254 111 252.6C107.9 251.8 105 250.1 103.5 248.4Z" fill="#255457"/>
<path d="M129.799 235.199L135.399 235.499L134.299 255.399L128.699 255.099L129.799 235.199Z" fill="#255457"/>
<path d="M159.9 249.1L160.5 253.4L144.6 255.5L142 235.8L157.5 233.8L158.1 238.1L148.1 239.4L148.5 242.7L157.3 241.5L157.8 245.7L149 246.9L149.5 250.5L159.9 249.1Z" fill="#255457"/>
<path d="M176.5 242.7L173.6 243.8L175.6 248.7L170.4 250.8L163 232.3L171.5 228.9C176.5 226.9 180.8 228.2 182.5 232.4C183.6 235.1 183.1 237.7 181.2 239.7L187.5 243.9L181.9 246.1L176.5 242.7ZM172.7 233.2L169.8 234.4L172 239.8L174.9 238.6C177.1 237.7 177.7 236.3 177.1 234.6C176.4 232.9 174.9 232.3 172.7 233.2Z" fill="#255457"/>
<path d="M199.8 229.5L197.3 231.3L200.5 235.5L196 238.9L184.1 222.9L191.4 217.5C195.8 214.2 200.2 214.5 202.9 218.1C204.7 220.4 204.8 223 203.5 225.5L210.7 227.9L205.9 231.5L199.8 229.5ZM193.7 221.3L191.2 223.2L194.7 227.9L197.2 226C199.1 224.6 199.4 223 198.3 221.6C197.2 220.1 195.6 219.9 193.7 221.3Z" fill="#255457"/>
<path d="M223 208L217.8 214.6L219.9 218.2L216.4 222.7L206.1 203.5L209.5 199.1L230.6 204.4L227 209L223 208ZM218.7 206.8L212.1 204.9L215.5 210.8L218.7 206.8Z" fill="#255457"/>
<path d="M24.9998 203.2L23.7998 199.8L89.0998 176.6C91.2998 175.8 93.7998 175.8 95.9998 176.7L154.2 198.6C155.8 199.2 157.7 199.1 159.2 198.4L205.7 177.1C208 176 210.7 175.9 213.1 176.7L257.1 191.5L256 194.9L212 180.1C210.4 179.6 208.7 179.7 207.2 180.4L160.7 201.7C158.3 202.8 155.4 202.9 152.9 202L94.6998 180.1C93.2998 179.6 91.6998 179.5 90.1998 180.1L24.9998 203.2Z" fill="#255457"/>
<path d="M141.4 210.7C140.7 210.7 140.1 210.3 139.8 209.7C139.4 208.8 139.8 207.8 140.7 207.3L184.5 186.8C185.4 186.4 186.4 186.8 186.9 187.7C187.3 188.6 186.9 189.6 186 190.1L142.2 210.6C141.9 210.7 141.7 210.7 141.4 210.7Z" fill="#255457"/>
<path d="M138.7 269.4C64.4 269.4 4 209 4 134.7C4 60.4 64.4 0 138.7 0C213 0 273.4 60.4 273.4 134.7C273.4 209 212.9 269.4 138.7 269.4ZM138.7 5.40002C67.4 5.40002 9.39999 63.4 9.39999 134.7C9.39999 206 67.4 264 138.7 264C210 264 268 206 268 134.7C268 63.4 210 5.40002 138.7 5.40002Z" fill="#255457"/>
<path d="M167.8 197.6L152 169.5H159.8L143 140.1H151.4L137.8 115.6L124.2 140.1H132.5L115.7 169.5H123.6L109.3 194.9L106.2 193.1L117.5 173H109.6L126.4 143.6H118.1L137.8 108.3L157.5 143.6H149.2L165.9 173H158.1L170.9 195.9L167.8 197.6Z" fill="#255457"/>
<path d="M221.1 211.4L208.9 189.8H215.4L201.4 165.2H208.4L197.5 145.6L186.6 165.2H193.6L179.6 189.8H186.1L173.9 211.4L170.8 209.7L180.1 193.3H173.5L187.5 168.7H180.6L197.5 138.3L214.5 168.7H207.5L221.6 193.3H215L224.2 209.7L221.1 211.4Z" fill="#255457"/>
<path d="M222.2 205.2L219.1 203.4L228.4 187.1H221.8L235.8 162.5H228.9L245.8 132.1L262.8 162.5H255.8L269.9 187.1H267.4L272.6 203.8L269.2 204.8L262.5 183.5H263.7L249.7 158.9H256.7L245.8 139.4L234.9 158.9H241.9L227.9 183.5H234.4L222.2 205.2Z" fill="#255457"/>
<path d="M101.6 200.2L89.2998 178.5H95.8998L81.8998 153.9H88.8998L77.9998 134.4L67.0998 153.9H74.0998L59.9998 178.5H66.5998L54.3998 200.2L51.2998 198.4L60.4998 182.1H53.8998L67.8998 157.5H60.9998L77.9998 127.1L94.8998 157.5H87.9998L102 182.1H95.3998L104.7 198.4L101.6 200.2Z" fill="#255457"/>
<path d="M3.10001 214.7L0 212.9L9.2 196.6H2.60001L16.7 172H9.7L26.7 141.6L43.6 172H36.7L49.7 194.9L47.9 197.8L53.5 213.2L50.1 214.4L44 197.3L45.6 194.8L30.6 168.4H37.6L26.7 148.9L15.8 168.4H22.8L8.7 193H15.3L3.10001 214.7Z" fill="#255457"/>
<path d="M168.5 93.0004C169.9 93.9004 170.5 95.5004 171.9 96.4004C171.5 95.8004 171.1 95.1004 170.8 94.5004C170.5 93.8004 170.4 93.1004 170.9 92.4004C171.9 93.1004 171.9 94.3004 172.7 95.0004C172.5 94.5004 172.4 93.9004 172.2 93.4004C172.3 93.4004 172.3 93.3004 172.4 93.3004C172.7 93.7004 173.1 94.2004 173.4 94.6004C174.5 96.3004 175.5 98.1004 176.6 99.8004C176.7 100 176.9 100.1 177.1 100.4C177.2 100.2 177.2 100.1 177.2 100C177.4 99.2004 177.5 99.1004 178.4 99.3004C178.6 99.4004 178.9 99.4004 179.2 99.4004C179.1 99.2004 179 99.1004 179 99.0004C178.6 98.2004 178.6 97.5004 179 96.7004C179.1 96.6004 179.2 96.4004 179.4 96.4004C179.5 96.4004 179.6 96.6004 179.7 96.7004C179.8 96.9004 179.9 97.1004 180 97.3004C180.3 96.3004 180.2 95.1004 181.2 94.3004C181.3 95.0004 181.3 95.5004 181.4 96.1004C181.5 94.9004 181.5 93.8004 182.6 92.8004C182.7 94.0004 182.8 95.1004 182.9 96.1004C183 96.1004 183.1 96.1004 183.2 96.1004C183.2 95.6004 183.3 95.1004 183.3 94.6004C183.3 93.6004 183.8 92.7004 184.6 92.5004C184.6 92.9004 184.6 93.2004 184.6 93.6004C184.8 93.5004 184.9 93.4004 185.1 93.2004C185.2 93.5004 185.3 93.7004 185.3 93.9004C185.6 95.2004 185.4 96.5004 184.9 97.8004C184.8 98.2004 184.6 98.6004 184.6 99.0004C184.7 99.9004 184.3 100.6 183.8 101.3C183.2 102.2 182.6 103.1 182 104L182.1 104.1C182.7 103.9 183.3 103.7 183.9 103.6C184.6 103.4 185.2 103.2 185.9 103.1C186.1 103.1 186.5 103.2 186.6 103.4C186.8 103.6 187 104 187.2 104.3C187.7 105.1 187.6 105.9 187.1 106.4C187 106.2 186.9 106.1 186.9 106C186.2 106.3 185.6 106.6 185 106.9C184.9 106.9 184.8 106.9 184.8 107C183.7 108 182.3 108.2 180.9 108.7C180.5 108.8 180.2 109 179.9 109.2C178.6 110.3 177 110.8 175.4 110.9C174.9 110.9 174.8 111.1 174.6 111.6C174.3 112.5 173.9 113.4 173.5 114.3C173.3 114.7 173 114.9 172.6 114.6C171.8 115.7 171 116.8 169.8 117.6C169.7 117.4 169.6 117.3 169.6 117.1C168.8 118.2 167.7 118.8 166.5 119.3C166.2 119.4 165.8 119.6 165.6 119.8C164.2 121 162.6 121.9 160.9 122.7C159.7 123.2 158.5 123.6 157.4 124.1C156.9 124.3 156.6 124.5 156.1 124C157.1 123.4 158.2 123.4 158.8 122.5C157.6 123 156.4 123.6 155.2 124.2C155.2 124.1 155.1 124.1 155.1 124C155.5 123.8 155.9 123.6 156.3 123.3C157.7 122.4 159.1 121.6 160.4 120.6C161.8 119.4 163.5 118.5 165.1 117.5C165.3 117.4 165.5 117.2 165.6 117C164.9 117.3 164.3 117.7 163.6 117.9C162.3 118.4 162 118.4 161.4 118.2C163.3 117.7 164.9 116.7 166.4 115.6C165.7 115.8 165.1 116 164.4 116.2L164.3 116.1C165.7 115.4 167.2 114.8 168.3 113.6C168.1 113.5 168 113.5 167.8 113.4C169.6 112.7 170 111 171.2 109.9C170.4 110 170.4 110 170.2 109.2C170.2 109.1 170.1 108.9 170 108.9C169.2 108.8 169.1 108.2 169.1 107.5C168.8 107.7 168.6 107.8 168.4 108C168.4 107.4 167.4 107.5 167.9 106.7C166.9 106.6 167.8 105.8 167.4 105.4C167.2 105.4 167 105.4 166.8 105.4C166.8 105.3 166.8 105.3 166.8 105.2C167 105.2 167.3 105.1 167.6 105C167.3 104.8 167.2 104.8 167 104.6C166.8 104.5 166.5 104.3 166.5 104.2C166.5 104 166.7 103.8 166.8 103.7C166.6 103.6 166.1 103.4 166.1 103.1C166.1 102.2 167 102.8 167.5 102.4C167.1 102.3 166.9 102.3 166.6 102.2C166.4 102.1 166.1 101.9 166 101.7C165.9 101.6 166.1 101.3 166.3 101.1C166.4 100.9 166.6 100.8 166.7 100.7C166.3 100.4 165.9 100.1 165.6 99.8004C165.5 99.7004 165.4 99.4004 165.5 99.2004C165.6 99.1004 165.9 99.0004 166.1 99.0004C166.6 99.0004 167 99.1004 167.5 99.2004C167.4 99.0004 167.2 98.8004 167 98.7004C166.5 98.2004 166 97.8004 165.6 97.3004C165.3 97.0004 165.3 96.5004 165.6 96.2004C166.4 96.7004 167.2 97.1004 168 97.5004C168 97.4004 168.1 97.4004 168.1 97.3004C167.5 96.3004 166.4 95.6004 166.1 94.2004C167.7 94.6004 168.5 96.1004 170 96.5004C168.8 94.9004 168.7 94.7004 169 94.3004C168.3 94.2004 168.2 93.8004 168.5 93.0004ZM159.4 122.7C163.2 121.1 166.2 118.6 168.7 115.4C166 118.3 162.7 120.4 159.4 122.7Z" fill="#255457"/>
<path d="M111.2 83.6C111.2 83.6 115.4 78.6 123 68.5C123 68.5 122.6 71.4 121.2 73.1C121.2 73.1 123.2 72.1 124.3 69.9C124.3 69.9 123.8 72.9 122.8 73.9C122.8 73.9 124.6 73.5 125.3 72.1C125.3 72.1 124.3 74.7 123 75.2C123 75.2 124.8 75.2 125.3 74.4C125.3 74.4 122.5 85.3 116.8 89.5C116.8 89.5 116.5 90.2 116.9 90.8C116.9 90.8 119.1 90.9 120.5 90.8C120.5 90.8 120.3 91.9 120 92.2C120 92.2 120.6 92.3 120.7 92.1C120.7 92.1 120.8 92.7 120.4 92.9C120.4 92.9 120.6 93.3 120.8 93.1C120.8 93.1 119.2 95.2 122.3 99.8C125.4 104.4 125.9 105.7 125.9 105.7C125.9 105.7 119.1 98.5 117 97.6C114.9 96.7 112.7 97.2 112.7 97.2C112.7 97.2 112.8 96.8 113 96.7C113 96.7 112.2 96.8 111.9 97.2C111.9 97.2 111.8 96.3 112.1 96.2C112.1 96.2 112.1 94.7 111.7 93.8C111.3 92.9 111.2 93 110.9 93.1C110.6 93.1 109.5 95.7 104.9 96.1C104.9 96.1 104.5 96.1 104.3 95.7C104.3 95.7 104 96 104 96.3C104 96.3 96.7998 96.9 91.7998 94C91.7998 94 93.5998 94.2 94.1998 93.2C94.1998 93.2 90.4998 93 89.7998 92.1C89.7998 92.1 92.8998 91.9 93.1998 91.3C93.1998 91.3 89.6998 91.4 88.7998 90.2C88.7998 90.2 104.3 90.3 106.1 87.5C106.1 87.5 106.6 86.1 105.9 85.5C105.2 84.9 103.7 82.1 104.9 80.9C106.1 79.7 107.7 80 108.9 81.2C110.2 83 110.4 84.2 111.2 83.6Z" fill="#255457"/>
<path d="M105.399 80.7996C105.399 80.6996 105.399 80.5996 105.499 80.6996C105.599 80.6996 106.499 80.9996 106.499 80.9996L105.399 81.4996C105.499 81.3996 105.399 80.8996 105.399 80.7996Z" fill="#255457"/>
<path d="M182.1 104.1L182 104C182.6 103.1 183.1 102.1 183.8 101.3C184.3 100.6 184.6 99.9 184.6 99C184.6 98.6 184.7 98.2 184.9 97.8C185.4 96.5 185.6 95.3 185.3 93.9C185.3 93.7 185.2 93.5 185.1 93.2C184.9 93.3 184.8 93.4 184.6 93.6C184.6 93.2 184.6 92.8 184.6 92.5C183.8 92.7 183.3 93.6 183.3 94.6C183.3 95.1 183.2 95.6 183.2 96.1C183.1 96.1 183 96.1 182.9 96.1C182.8 95 182.7 94 182.6 92.8C181.5 93.8 181.6 94.9 181.4 96.1C181.3 95.5 181.3 95 181.2 94.3C180.2 95.1 180.3 96.3 180 97.3C179.9 97.1 179.8 96.9 179.7 96.7C179.6 96.6 179.5 96.4 179.4 96.4C179.3 96.4 179.1 96.6 179 96.7C178.6 97.5 178.7 98.2 179 99C179 99.1 179.1 99.2 179.2 99.4C178.9 99.4 178.6 99.4 178.4 99.3C177.5 99.1 177.5 99.1 177.2 100C177.2 100.1 177.2 100.1 177.1 100.4C177.1 100.4 177.9 102.2 178.9 102.7C179.9 103.2 181.2 104.1 181.4 104.1C181.6 104 182.1 104.1 182.1 104.1Z" fill="#224C4C"/>
</svg>
