<svg width="117" height="114" viewBox="0 0 117 114" fill="none" xmlns="http://www.w3.org/2000/svg">
<path d="M30.7998 53.8003C30.5998 53.8003 30.2998 53.7001 30.0998 53.6001L22.9998 49.4001L14.5998 52.1001C14.1998 52.2001 13.6998 52.2001 13.2998 51.9001C12.8998 51.6001 12.7998 51.2002 12.7998 50.7002V50.3003V50.2002C14.0998 42.3002 17.2998 34.8001 22.0998 28.4001C22.3998 28.1001 22.7998 27.9001 23.1998 27.9001C23.5998 27.9001 23.9998 28.1002 24.2998 28.5002L34.7998 43.1001C35.0998 43.5001 35.0998 44.1002 34.8998 44.5002C33.5998 47.1002 32.5998 49.8002 32.0998 52.7002C32.0998 53.2002 31.7998 53.6003 31.3998 53.8003C31.1998 53.8003 30.9998 53.8003 30.7998 53.8003ZM22.9998 47.9001C23.1998 47.9001 23.4998 48.0001 23.6998 48.1001L30.6998 52.2002C31.1998 49.3002 32.1998 46.5003 33.5998 43.8003L23.2998 29.5002C18.6998 35.7002 15.5998 42.9002 14.3998 50.5002V50.6001L22.6998 48.0002C22.7998 47.9002 22.8998 47.9001 22.9998 47.9001Z" fill="#ECECE6"/>
<path d="M87.8 53.8003C87.6 53.8003 87.3999 53.8002 87.1999 53.7002C86.7999 53.5002 86.5 53.1001 86.5 52.6001C86 49.8001 84.9999 47.0001 83.6999 44.4001C83.4999 43.9001 83.5 43.4002 83.8 43.0002L94.3 28.4001C94.5 28.1001 94.9999 27.8003 95.3999 27.8003C95.7999 27.8003 96.2 28.0003 96.5 28.3003C101.3 34.7003 104.6 42.2001 105.8 50.1001V50.2002V50.5002C105.8 51.0002 105.7 51.4002 105.3 51.7002C104.9 52.0002 104.5 52.1001 104 51.9001L95.5999 49.2002L88.5 53.4001C88.3 53.8001 88 53.8003 87.8 53.8003ZM85 43.8003C86.4 46.5003 87.2999 49.3002 87.8999 52.2002L94.8999 48.1001C95.1999 47.9001 95.6 47.9002 96 48.0002L104.3 50.6001V50.5002C103.1 42.9002 99.9999 35.7002 95.3999 29.5002L85 43.8003Z" fill="#ECECE6"/>
<path d="M13.9996 42.9001C13.1996 42.7001 12.6996 41.9001 12.9996 41.1001C18.8996 21.1001 37.3996 6.6001 59.2996 6.6001C81.1996 6.6001 99.7996 21.2003 105.6 41.3003C105.8 42.1003 105.4 42.9001 104.6 43.1001L89.8996 46.6001C89.1996 46.8001 88.4996 46.4002 88.1996 45.7002C84.2996 33.5002 72.7996 24.6001 59.2996 24.6001C45.8996 24.6001 34.4996 33.3001 30.4996 45.4001C30.2996 46.1001 29.5996 46.5003 28.8996 46.3003L13.9996 42.9001Z" fill="#255457"/>
<path d="M89.4998 47.3003C88.5998 47.3003 87.6998 46.7003 87.3998 45.8003C83.4998 33.5003 72.0998 25.2002 59.1998 25.2002C46.3998 25.2002 35.0998 33.3002 31.0998 45.5002C30.7998 46.6002 29.6998 47.2001 28.5998 46.9001L13.7998 43.6001C13.1998 43.5001 12.6998 43.1001 12.3998 42.6001C12.0998 42.1001 11.9998 41.5001 12.1998 40.9001C15.0998 31.0001 21.2998 22.1003 29.5998 15.8003C38.1998 9.30029 48.3998 5.90015 59.1998 5.90015C69.9998 5.90015 80.2998 9.40015 88.7998 15.9001C97.0998 22.2001 103.3 31.2001 106.2 41.1001C106.4 41.7001 106.3 42.3003 106 42.8003C105.7 43.3003 105.2 43.7003 104.6 43.8003L89.8998 47.3003C89.8998 47.3003 89.6998 47.3003 89.4998 47.3003ZM59.2998 23.7002C72.8998 23.7002 84.7998 32.4003 88.8998 45.3003C88.9998 45.6003 89.2998 45.8002 89.6998 45.7002L104.4 42.2002C104.6 42.2002 104.7 42.1001 104.8 41.9001C104.9 41.7001 104.9 41.6001 104.9 41.4001C98.9998 21.3001 80.2998 7.30029 59.2998 7.30029C38.3998 7.30029 19.6998 21.3003 13.7998 41.3003C13.6998 41.5003 13.7998 41.7003 13.8998 41.8003C13.9998 42.0003 14.0998 42.1001 14.2998 42.1001L29.0998 45.4001C29.3998 45.5001 29.6998 45.3002 29.8998 45.0002C33.9998 32.3002 45.7998 23.7002 59.2998 23.7002Z" fill="#ECECE6"/>
<path d="M28.8996 35.4001L29.7996 36.7002L28.5996 38.4001L24.0996 31.1001L25.2996 29.4001L33.6996 31.2002L32.4996 33.0002L30.9996 32.6001L28.8996 35.4001ZM26.1996 31.4001L27.8996 34.0002L29.1996 32.1001L26.1996 31.4001Z" fill="#ECECE6"/>
<path d="M40.2995 25.7002L37.1995 21.6001L38.2995 26.2002L37.2995 27.0002L33.0995 24.7002L36.1995 28.8003L34.7995 29.9001L29.9995 23.6001L31.6995 22.3003L36.2995 24.7002L35.0995 19.7002L36.7995 18.4001L41.5995 24.7002L40.2995 25.7002Z" fill="#ECECE6"/>
<path d="M44.2996 23.5002L41.0996 16.3003L42.8996 15.5002L46.0996 22.7002L44.2996 23.5002Z" fill="#ECECE6"/>
<path d="M54.6996 16.2003L55.2996 19.2003C54.5996 20.0003 53.3996 20.7002 52.2996 20.9002C49.8996 21.4002 47.7996 20.1004 47.2996 17.8004C46.7996 15.6004 48.2996 13.5003 50.6996 13.0003C51.7996 12.8003 53.1996 12.9003 54.0996 13.5003L53.2996 15.1002C52.5996 14.7002 51.7996 14.5003 51.0996 14.7003C49.7996 15.0003 49.0996 16.2003 49.2996 17.5003C49.5996 18.8003 50.7996 19.6004 52.0996 19.3004C52.4996 19.2004 52.9996 19.0002 53.3996 18.6002L52.9996 16.6002L54.6996 16.2003Z" fill="#ECECE6"/>
<path d="M66.2995 16.6001C66.0995 18.9001 64.1995 20.5003 61.6995 20.3003C59.2995 20.1003 57.5995 18.3003 57.6995 16.0003C57.8995 13.7003 59.7995 12.1003 62.1995 12.3003C64.6995 12.4003 66.3995 14.3001 66.2995 16.6001ZM59.7995 16.1001C59.6995 17.4001 60.6995 18.5001 61.8995 18.6001C63.0995 18.7001 64.1995 17.7002 64.2995 16.4002C64.3995 15.1002 63.4995 14.0002 62.2995 13.9002C60.9995 13.9002 59.8995 14.8001 59.7995 16.1001Z" fill="#ECECE6"/>
<path d="M76.1994 16.5002L74.9995 17.7001C74.3995 17.0001 73.4994 16.3 72.8994 16.1C72.3994 15.9 71.9994 16.0001 71.8994 16.4001C71.3994 17.7001 75.5994 18.3002 74.6994 21.0002C74.1994 22.5002 72.5994 22.8001 70.8994 22.2001C69.6994 21.8001 68.4994 20.8002 67.8994 19.8002L69.1994 18.6C69.6994 19.5 70.6995 20.4001 71.4995 20.7001C72.0995 20.9001 72.4994 20.8001 72.6994 20.4001C73.1994 19.1001 68.8994 18.5002 69.8994 15.8002C70.3994 14.4002 71.8994 14 73.6994 14.6C74.6994 15 75.5994 15.7002 76.1994 16.5002Z" fill="#ECECE6"/>
<path d="M86.9998 22.6001C88.8998 24.2001 89.0998 26.6003 87.5998 28.3003C86.0998 30.1003 83.6998 30.1002 81.7998 28.5002L79.2998 26.3003L84.4998 20.3003L86.9998 22.6001ZM81.7998 26.4001L82.8998 27.3003C83.7998 28.1003 85.0998 28.0001 85.9998 26.9001C86.8998 25.8001 86.8998 24.5002 85.8998 23.7002L84.8998 22.8003L81.7998 26.4001Z" fill="#ECECE6"/>
<path d="M92.6994 31.2002L91.3994 32.1001L93.4995 35.2002L92.1994 36.1001L90.0994 33.0002L88.7994 33.9001L91.1994 37.5002L89.8994 38.4001L86.3994 33.1001L92.9995 28.7002L96.3994 33.9001L95.0994 34.8003L92.6994 31.2002Z" fill="#ECECE6"/>
<path d="M28.2994 84.1001L29.7994 85.9001L24.7994 90.1001L27.3994 93.2002L25.9995 94.4001L21.8994 89.5002L28.2994 84.1001Z" fill="#ECECE6"/>
<path d="M34.3995 99.2002L31.4995 97.1001L29.9995 98.0002L27.9995 96.6001L35.9995 91.9001L37.8995 93.3003L35.9995 102.3L33.9995 100.8L34.3995 99.2002ZM34.8995 97.4001L35.5995 94.6001L33.0995 96.2002L34.8995 97.4001Z" fill="#ECECE6"/>
<path d="M44.3994 105.2L45.5994 103.7C46.1994 104.4 47.1994 104.9 48.0994 105.2C49.0994 105.4 49.4994 105.3 49.5994 104.9C49.8994 103.6 44.9994 103.4 45.7994 100.3C46.1994 98.8002 47.6994 97.9002 50.0994 98.5002C51.1994 98.8002 52.1994 99.3002 52.8994 100L51.7994 101.5C51.0994 100.9 50.3994 100.5 49.6994 100.3C48.6994 100.1 48.2994 100.3 48.1994 100.7C47.8994 102 52.7995 102.2 51.9995 105.2C51.5995 106.6 50.0994 107.5 47.6994 106.9C46.2994 106.6 45.0994 105.9 44.3994 105.2Z" fill="#ECECE6"/>
<path d="M55.5996 99.6001L57.9996 99.7002L57.4996 108.1L55.0996 108L55.5996 99.6001Z" fill="#ECECE6"/>
<path d="M68.2993 105.5L68.4993 107.3L61.7993 108.2L60.6992 99.8003L67.2993 98.9001L67.4993 100.7L63.2993 101.3L63.4993 102.7L67.1992 102.2L67.3992 104L63.6992 104.5L63.8992 106L68.2993 105.5Z" fill="#ECECE6"/>
<path d="M75.2996 102.8L74.0996 103.3L74.8996 105.4L72.6996 106.3L69.5996 98.5002L73.1996 97.1C75.2996 96.2 77.0996 96.8 77.7996 98.6C78.2996 99.8 77.9996 100.8 77.2996 101.7L79.9996 103.5L77.5996 104.5L75.2996 102.8ZM73.7996 98.8002L72.5996 99.3002L73.4996 101.6L74.6996 101.1C75.5996 100.7 75.8996 100.1 75.5996 99.4001C75.2996 98.6001 74.6996 98.4002 73.7996 98.8002Z" fill="#ECECE6"/>
<path d="M85.1996 97.2002L84.1996 98.0002L85.4996 99.8003L83.5996 101.2L78.5996 94.4001L81.6996 92.1001C83.4996 90.7001 85.3996 90.8001 86.5996 92.4001C87.2996 93.4001 87.3996 94.5002 86.8996 95.5002L89.8996 96.5002L87.8996 98.0002L85.1996 97.2002ZM82.6996 93.7002L81.5996 94.5002L83.0996 96.5002L84.1996 95.7002C84.9996 95.1002 85.0996 94.4003 84.6996 93.8003C84.0996 93.2003 83.4996 93.2002 82.6996 93.7002Z" fill="#ECECE6"/>
<path d="M94.9995 88.1001L92.7994 90.9001L93.6994 92.4001L92.1994 94.3003L87.8994 86.2002L89.2994 84.3003L98.1994 86.6001L96.6994 88.6001L94.9995 88.1001ZM93.1994 87.6001L90.3994 86.8003L91.8994 89.3003L93.1994 87.6001Z" fill="#ECECE6"/>
<path d="M11.1997 86.1L10.6997 84.7001L38.3997 74.9C39.2997 74.6 40.3997 74.6 41.2997 74.9L65.8997 84.2001C66.5997 84.5001 67.3998 84.4 67.9998 84.1L87.6997 75.1C88.6997 74.6 89.7997 74.6 90.7997 74.9L109.4 81.2001L108.9 82.6L90.2997 76.3002C89.5997 76.1002 88.8997 76.1 88.2997 76.4L68.5997 85.4C67.5997 85.9 66.3997 85.9001 65.2997 85.5001L40.6997 76.2001C40.0997 76.0001 39.3997 76.0001 38.7997 76.2001L11.1997 86.1Z" fill="#ECECE6"/>
<path d="M60.4997 89.3004C60.1997 89.3004 59.8997 89.1003 59.7997 88.9003C59.5997 88.5003 59.7996 88.1003 60.1996 87.9003L78.7997 79.2003C79.1997 79.0003 79.5997 79.2002 79.7997 79.6002C79.9997 80.0002 79.7996 80.4002 79.3996 80.6002L60.7997 89.3004C60.6997 89.2004 60.5997 89.3004 60.4997 89.3004Z" fill="#ECECE6"/>
<path d="M59.2994 113.5C28.1994 113.5 2.89941 88.2001 2.89941 57.1001C2.89941 26.0001 28.1994 0.700195 59.2994 0.700195C90.3994 0.700195 115.699 26.0001 115.699 57.1001C115.799 88.2001 90.4994 113.5 59.2994 113.5ZM59.2994 2.30029C29.0994 2.30029 4.49945 26.9001 4.49945 57.1001C4.49945 87.3001 29.0994 111.9 59.2994 111.9C89.4994 111.9 114.099 87.3001 114.099 57.1001C114.099 26.9001 89.4994 2.30029 59.2994 2.30029Z" fill="#ECECE6"/>
<path d="M71.6996 83.7002L64.9996 71.8003H68.2996L61.1996 59.3003H64.6996L58.9996 49.0002L53.1996 59.3003H56.6996L49.5996 71.8003H52.9996L46.8996 82.5002L45.5996 81.8003L50.3996 73.3003H46.9996L54.0996 60.8003H50.5996L58.9996 45.9001L67.2996 60.8003H63.7996L70.8996 73.3003H67.5996L72.9996 83.0002L71.6996 83.7002Z" fill="#ECECE6"/>
<path d="M94.1995 89.5002L89.0995 80.4001H91.8995L85.8995 70.0002H88.8995L84.2995 61.7002L79.5995 70.0002H82.5995L76.6995 80.4001H79.3995L74.2995 89.5002L72.9995 88.8003L76.8995 81.9001H74.0995L79.9995 71.5002H77.0995L84.2995 58.6001L91.3995 71.5002H88.4995L94.3995 81.9001H91.6995L95.5995 88.8003L94.1995 89.5002Z" fill="#ECECE6"/>
<path d="M94.6994 86.9001L93.3994 86.2002L97.2994 79.2002H94.4995L100.499 68.8003H97.4995L104.699 55.9001L111.899 68.8003H108.999L114.899 79.2002H113.799L116.099 86.3003L114.599 86.8003L111.799 77.7002H112.299L106.399 67.3003H109.299L104.699 59.0002L100.099 67.3003H103.099L97.0994 77.7002H99.8994L94.6994 86.9001Z" fill="#ECECE6"/>
<path d="M43.5998 84.8003L38.4998 75.6001H41.1998L35.2998 65.2002H38.2998L33.5998 56.9001L28.9998 65.2002H31.9998L25.9998 75.6001H28.7998L23.6998 84.8003L22.2998 84.0002L26.1998 77.1001H23.4998L29.3998 66.7002H26.4998L33.5998 53.8003L40.7998 66.7002H37.8998L43.7998 77.1001H40.9998L44.8998 84.0002L43.5998 84.8003Z" fill="#ECECE6"/>
<path d="M1.8996 90.9001L0.599609 90.2002L4.49963 83.3003H1.69958L7.69958 72.9001H4.69958L11.8996 60.0002L19.0996 72.9001H16.1996L21.6996 82.5002L20.8996 83.8003L23.2996 90.3003L21.8996 90.8003L19.2996 83.6001L19.8996 82.5002L13.5996 71.3003H16.4996L11.8996 63.1001L7.29962 71.3003H10.2996L4.29962 81.8003H7.09961L1.8996 90.9001Z" fill="#ECECE6"/>
<path d="M71.9995 39.4001C72.5995 39.8001 72.8995 40.5003 73.3995 40.8003C73.2995 40.5003 73.0995 40.3002 72.9995 40.0002C72.8995 39.7002 72.7995 39.4001 72.9995 39.1001C73.3995 39.4001 73.3995 39.9002 73.7995 40.2002C73.6995 40.0002 73.6995 39.7002 73.5995 39.5002H73.6995C73.7995 39.7002 73.9995 39.9001 74.0995 40.1001C74.5995 40.8001 74.9995 41.6003 75.4995 42.3003C75.5995 42.4003 75.5995 42.4001 75.6995 42.6001C75.6995 42.5001 75.6995 42.5001 75.7995 42.4001C75.8995 42.0001 75.8995 42.0001 76.2995 42.1001C76.3995 42.1001 76.4995 42.1001 76.5995 42.1001C76.5995 42.0001 76.4995 42.0001 76.4995 41.9001C76.2995 41.6001 76.2995 41.2001 76.4995 40.9001C76.4995 40.8001 76.5995 40.8003 76.6995 40.8003L76.7995 40.9001C76.8995 41.0001 76.8995 41.1002 76.8995 41.2002C76.9995 40.8002 76.9995 40.3001 77.3995 39.9001C77.3995 40.2001 77.4995 40.4001 77.4995 40.6001C77.5995 40.1001 77.4995 39.6002 77.9995 39.2002C77.9995 39.7002 78.0995 40.2001 78.0995 40.6001H78.1995C78.1995 40.4001 78.1995 40.2002 78.1995 40.0002C78.1995 39.6002 78.3995 39.2001 78.6995 39.1001C78.6995 39.3001 78.6995 39.4001 78.6995 39.6001C78.7995 39.5001 78.7995 39.5001 78.8995 39.4001C78.8995 39.5001 78.9995 39.6002 78.9995 39.7002C79.0995 40.3002 78.9995 40.8003 78.7995 41.3003C78.6995 41.5003 78.6995 41.6003 78.6995 41.8003C78.6995 42.2003 78.5995 42.5003 78.3995 42.8003C78.0995 43.2003 77.8995 43.6002 77.6995 44.0002C77.6995 44.0002 77.6995 44.0001 77.7995 44.1001C77.9995 44.0001 78.2995 43.9001 78.4995 43.9001C78.7995 43.8001 79.0995 43.7002 79.3995 43.7002C79.4995 43.7002 79.5995 43.7003 79.6995 43.8003C79.7995 43.9003 79.8995 44.0002 79.9995 44.2002C80.1995 44.5002 80.1995 44.9001 79.9995 45.1001C79.9995 45.0001 79.8995 45.0001 79.8995 44.9001C79.5995 45.0001 79.2995 45.2003 79.0995 45.3003H78.9995C78.4995 45.7003 77.8995 45.8002 77.3995 46.0002C77.1995 46.0002 77.0995 46.1002 76.9995 46.2002C76.3995 46.7002 75.7995 46.9001 75.0995 46.9001C74.8995 46.9001 74.7995 47.0002 74.7995 47.2002C74.6995 47.6002 74.4995 48.0003 74.2995 48.3003C74.1995 48.4003 74.0995 48.6001 73.8995 48.4001C73.5995 48.9001 73.1995 49.3002 72.6995 49.7002C72.6995 49.6002 72.5995 49.6002 72.5995 49.5002C72.1995 50.0002 71.7995 50.2001 71.2995 50.4001C71.1995 50.5001 70.9995 50.5001 70.8995 50.6001C70.2995 51.1001 69.5995 51.5003 68.8995 51.8003C68.3995 52.0003 67.8995 52.2001 67.3995 52.4001C67.1995 52.5001 66.9995 52.6001 66.7995 52.4001C67.1995 52.2001 67.6995 52.1003 67.9995 51.8003C67.4995 52.0003 66.9995 52.3002 66.4995 52.5002V52.4001C66.6995 52.3001 66.8995 52.2001 66.9995 52.1001C67.5995 51.7001 68.1995 51.4001 68.7995 50.9001C69.3995 50.4001 70.0995 50.0001 70.7995 49.6001C70.8995 49.5001 70.9995 49.5001 70.9995 49.4001C70.6995 49.5001 70.3995 49.7003 70.0995 49.8003C69.5995 50.0003 69.3995 50.0001 69.1995 49.9001C69.9995 49.7001 70.6995 49.3003 71.2995 48.8003C70.9995 48.9003 70.6995 49.0002 70.4995 49.0002C70.4995 49.0002 70.4995 49.0001 70.4995 48.9001C71.0995 48.6001 71.6995 48.4003 72.1995 47.8003C72.0995 47.8003 72.0995 47.8002 71.9995 47.7002C72.6995 47.4002 72.8995 46.7002 73.3995 46.2002C73.0995 46.3002 73.0995 46.3001 72.9995 45.9001C72.9995 45.8001 72.8995 45.8003 72.8995 45.8003C72.4995 45.7003 72.4995 45.5002 72.4995 45.2002C72.3995 45.3002 72.2995 45.3001 72.1995 45.4001C72.1995 45.2001 71.7995 45.2001 71.9995 44.9001C71.5995 44.8001 71.8995 44.5003 71.7995 44.3003C71.6995 44.3003 71.5995 44.3003 71.5995 44.3003C71.5995 44.3003 71.5995 44.3002 71.5995 44.2002C71.6995 44.2002 71.7995 44.2001 71.8995 44.1001C71.7995 44.0001 71.6995 44.0002 71.5995 44.0002C71.4995 43.9002 71.3995 43.9003 71.3995 43.8003C71.3995 43.7003 71.4995 43.6001 71.4995 43.6001C71.3995 43.5001 71.1995 43.5001 71.1995 43.4001C71.1995 43.0001 71.5995 43.3001 71.7995 43.1001C71.5995 43.1001 71.4995 43.1002 71.3995 43.0002C71.2995 43.0002 71.1995 42.9003 71.0995 42.8003C71.0995 42.7003 71.1995 42.6002 71.1995 42.5002C71.2995 42.4002 71.2995 42.4003 71.3995 42.3003C71.1995 42.2003 71.0995 42.1001 70.8995 41.9001C70.7995 41.8001 70.7995 41.7001 70.8995 41.6001C70.8995 41.5001 71.0995 41.5002 71.0995 41.5002C71.2995 41.5002 71.4995 41.5001 71.6995 41.6001C71.5995 41.5001 71.5995 41.4001 71.4995 41.4001C71.2995 41.2001 71.0995 41.0003 70.8995 40.8003C70.7995 40.7003 70.7995 40.5003 70.8995 40.3003C71.1995 40.5003 71.5995 40.7001 71.8995 40.9001C71.8995 40.9001 71.8995 40.9003 71.8995 40.8003C71.5995 40.4003 71.1995 40.1002 71.0995 39.5002C71.7995 39.7002 72.0995 40.3002 72.7995 40.5002C72.2995 39.8002 72.2995 39.7001 72.3995 39.6001C71.8995 39.9001 71.7995 39.8001 71.9995 39.4001ZM68.0995 52.0002C69.6995 51.3002 70.9995 50.3001 72.0995 48.9001C70.8995 50.1001 69.4995 51.0002 68.0995 52.0002Z" fill="#ECECE6"/>
<path d="M47.6996 35.4001C47.6996 35.4001 49.4996 33.3002 52.6996 29.0002C52.6996 29.0002 52.4996 30.2002 51.9996 31.0002C51.9996 31.0002 52.8996 30.6002 53.2996 29.7002C53.2996 29.7002 53.0996 31.0001 52.6996 31.4001C52.6996 31.4001 53.4996 31.3001 53.6996 30.6001C53.6996 30.6001 53.2996 31.7001 52.6996 31.9001C52.6996 31.9001 53.4996 31.9001 53.6996 31.6001C53.6996 31.6001 52.4996 36.2002 50.0996 38.0002C50.0996 38.0002 49.9996 38.3001 50.0996 38.6001C50.0996 38.6001 50.9996 38.6001 51.5996 38.6001C51.5996 38.6001 51.4996 39.1002 51.3996 39.2002C51.3996 39.2002 51.5996 39.3002 51.6996 39.2002C51.6996 39.2002 51.6996 39.5002 51.5996 39.5002C51.5996 39.5002 51.6996 39.7001 51.7996 39.6001C51.7996 39.6001 51.0996 40.5001 52.4996 42.4001C53.8996 44.3001 53.9996 44.9001 53.9996 44.9001C53.9996 44.9001 51.0996 41.8002 50.1996 41.5002C49.2996 41.1002 48.3996 41.3003 48.3996 41.3003C48.3996 41.3003 48.3996 41.1001 48.4996 41.1001C48.4996 41.1001 48.0996 41.1003 47.9996 41.3003C47.9996 41.3003 47.9996 40.9001 48.0996 40.9001C48.0996 40.9001 48.0996 40.3001 47.8996 39.9001C47.6996 39.5001 47.6996 39.6001 47.5996 39.6001C47.4996 39.6001 46.9996 40.7001 44.9996 40.9001C44.9996 40.9001 44.7996 40.9002 44.6996 40.7002C44.6996 40.7002 44.5996 40.8001 44.5996 40.9001C44.5996 40.9001 41.4996 41.2001 39.3996 39.9001C39.3996 39.9001 40.1996 40.0001 40.3996 39.6001C40.3996 39.6001 38.7996 39.5001 38.5996 39.1001C38.5996 39.1001 39.8996 39.0003 39.9996 38.8003C39.9996 38.8003 38.4996 38.8003 38.0996 38.3003C38.0996 38.3003 44.5996 38.3002 45.3996 37.2002C45.3996 37.2002 45.5996 36.6001 45.2996 36.4001C44.9996 36.2001 44.3996 35.0002 44.8996 34.5002C45.3996 34.0002 46.0996 34.1001 46.5996 34.6001C47.2996 35.2001 47.3996 35.7001 47.6996 35.4001Z" fill="#ECECE6"/>
<path d="M45.2997 34.2002C45.2997 34.2002 45.2997 34.1002 45.2997 34.2002C45.3997 34.2002 45.7997 34.3003 45.7997 34.3003L45.3997 34.5003C45.2997 34.5003 45.1997 34.3002 45.2997 34.2002Z" fill="#ECECE6"/>
</svg>
