<svg width="360" height="800" viewBox="0 0 360 800" fill="none" xmlns="http://www.w3.org/2000/svg">
<g clip-path="url(#clip0)">
<rect width="360" height="800" fill="white"/>
<path d="M359.899 0.200195H-0.100586V800.2H359.899V0.200195Z" fill="#ECECE6"/>
<path d="M-102.6 559.6L93.7004 392.2C99.4004 387.3 107.9 387.5 113.5 392.6L207.1 479.8L221.8 470.5C226.6 467.5 232.7 467.5 237.5 470.4L390.4 565.2L-102.6 559.6Z" fill="#00976F"/>
<path d="M-125.8 557.7H370.7V811.6H-127L-125.8 557.7Z" fill="#83D080"/>
<path d="M128.9 565.2L212 515.7C215.5 513.6 219.8 513.5 223.4 515.4L267.1 538.8L363.4 481.5C367 479.4 371.4 479.3 375 481.3L419.9 506.5V588.8L128.9 565.2Z" fill="#00A374"/>
<path d="M-90.5996 526.9L-23.0996 483.8C-18.3996 480.8 -12.3996 480.5 -7.49961 483.1L105.1 542L146.5 514.6C150.4 512 155.3 511.3 159.8 512.7L408.5 591.2H-90.5996V526.9Z" fill="#4EBD71"/>
<path d="M16.7998 610.7L216.1 617.8L19.1998 619L16.7998 610.7Z" fill="#96DA8D"/>
<path d="M318.4 691.8L119.1 684.7L316.1 683.5L318.4 691.8Z" fill="#96DA8D"/>
<path d="M-19.5004 582.616L8.1996 523.216C9.5996 520.116 14.0996 520.316 15.2996 523.516L37.5996 582.716H28.3996L42.6996 624.016H35.1996L69.5996 712.316H-54.4004L-21.3004 625.416H-31.8004L-11.1004 582.716L-19.5004 582.616Z" fill="#005E66"/>
<path d="M120 603.016L154.3 664.816L147.4 666.016L161.4 695.016L96.0004 727.516L77.4004 718.016L115.3 603.116C116.3 601.316 119 601.216 120 603.016Z" fill="#005E66"/>
<path d="M68.8996 563.616L97.9996 617.716L85.9996 618.616L109.2 671.716L99.0996 670.916L116.6 729.816L7.59961 704.516L47.2996 618.816L37.1996 617.716L61.9996 563.816C63.3996 560.916 67.3996 560.816 68.8996 563.616Z" fill="#00736E"/>
<path d="M380 591.716L352.3 532.316C350.9 529.216 346.4 529.416 345.2 532.616L322.9 591.816H332.1L317.8 633.116H325.3L290.9 721.416H415L381.9 634.516H392.3L371.6 591.816L380 591.716Z" fill="#005E66"/>
<path d="M300.4 574.316L271.3 628.416L283.3 629.316L260.1 682.416L270.2 681.616L252.7 740.516L361.7 715.216L322 629.516L332.1 628.416L307.3 574.516C305.9 571.716 301.9 571.516 300.4 574.316Z" fill="#00736E"/>
<path d="M251.1 610.816L216.8 672.616L223.7 673.816L209.7 702.816L275.1 735.316L293.7 725.816L255.8 610.916C254.9 609.016 252.2 608.916 251.1 610.816Z" fill="#005E66"/>
<path d="M164.372 687.95C158.972 689.35 154.172 691.95 150.372 695.45C145.672 678.65 128.372 668.55 111.372 672.85C106.872 673.95 102.972 675.95 99.4716 678.55C84.1716 653.85 54.1716 640.65 24.4716 648.05C-12.3284 657.25 -34.6284 694.55 -25.4284 731.35C-16.2284 768.15 21.0716 790.45 57.8716 781.25C82.2716 775.15 100.372 756.65 107.072 734.05C113.272 736.55 120.272 737.25 127.172 735.45C132.572 734.05 137.372 731.45 141.172 727.95C145.872 744.75 163.172 754.85 180.172 750.55C197.472 746.25 208.072 728.65 203.672 711.35C199.272 694.05 181.672 683.55 164.372 687.95Z" fill="#30B983"/>
<path d="M154.872 724.549C149.472 725.949 144.672 728.549 140.872 732.049C136.172 715.249 118.872 705.149 101.872 709.449C97.3716 710.549 93.4716 712.549 89.9716 715.149C74.6716 690.449 44.6716 677.249 14.9716 684.649C-21.8284 693.849 -44.1284 731.149 -34.9284 767.949C-25.7284 804.749 11.5716 827.049 48.3716 817.849C72.7716 811.749 90.8716 793.249 97.5716 770.649C103.772 773.149 110.772 773.849 117.672 772.049C123.072 770.649 127.872 768.049 131.672 764.549C136.372 781.349 153.672 791.449 170.672 787.149C187.972 782.849 198.572 765.249 194.172 747.949C189.772 730.749 172.172 720.249 154.872 724.549Z" fill="#00AF6E"/>
<path d="M228.672 677.15C233.672 679.65 237.772 683.25 240.772 687.45C248.972 672.05 267.972 665.85 283.672 673.65C287.772 675.65 291.272 678.45 294.072 681.75C314.272 660.85 346.472 654.45 373.872 668.05C407.872 684.95 421.672 726.05 404.872 760.05C388.072 794.05 346.872 807.85 312.872 791.05C290.272 779.85 276.672 757.85 274.972 734.45C268.372 735.65 261.472 734.75 254.972 731.55C249.972 729.05 245.872 725.45 242.872 721.25C234.672 736.65 215.672 742.85 199.972 735.05C183.972 727.15 177.472 707.75 185.372 691.75C193.272 675.75 212.672 669.25 228.672 677.15Z" fill="#30B983"/>
<path d="M84.6595 708.269C89.6595 710.769 93.7595 714.369 96.7595 718.569C104.959 703.169 123.959 696.969 139.659 704.769C143.759 706.769 147.259 709.569 150.059 712.869C170.259 691.969 202.459 685.569 229.859 699.169C263.859 716.069 277.659 757.169 260.859 791.169C244.059 825.169 202.859 838.969 168.859 822.169C146.259 810.969 132.659 788.969 130.959 765.569C124.359 766.769 117.459 765.869 110.959 762.669C105.959 760.169 101.859 756.569 98.8595 752.369C90.6595 767.769 71.6595 773.969 55.9595 766.169C39.9595 758.269 33.4595 738.869 41.3595 722.869C49.2595 706.769 68.6595 700.269 84.6595 708.269Z" fill="#00AF6E"/>
<path d="M545.442 674C532.686 674 520.969 678.746 512.069 686.607C505.246 681.268 496.792 678.005 487.447 678.005C476.917 678.005 467.424 682.009 460.304 688.684C452.443 685.124 443.84 683.048 434.644 683.048C410.616 683.048 389.999 696.842 379.913 716.865C373.09 718.349 367.009 722.057 362.559 727.1C354.401 720.129 343.722 715.827 332.005 715.827C326.813 715.827 321.77 716.717 317.024 718.2C306.048 699.512 285.876 687.053 262.738 687.053C240.044 687.053 220.317 699.067 209.193 717.014C205.188 716.272 201.035 715.827 196.734 715.827C185.758 715.827 175.524 718.645 166.476 723.54C153.127 706.928 132.658 696.248 109.668 696.248C75.5537 696.248 47.0756 719.684 39.0662 751.276C34.1715 749.052 28.6836 747.865 23.0473 747.865C0.94712 747.865 -17 765.812 -17 787.912C-17 810.013 0.94712 827.96 23.0473 827.96C34.9132 827.96 45.5924 822.768 52.8602 814.611C66.2093 831.223 86.678 841.902 109.52 841.902C126.725 841.902 142.448 835.969 154.758 826.031C165.883 835.821 180.418 841.902 196.437 841.902C219.131 841.902 238.858 829.888 249.982 811.941C253.987 812.682 258.14 813.127 262.441 813.127C277.422 813.127 291.067 807.936 301.895 799.185C310.053 805.859 320.287 809.864 331.708 809.864C352.325 809.864 369.827 796.515 376.057 778.123C378.578 779.013 381.248 779.458 384.066 779.606C395.19 795.328 413.434 805.711 434.199 805.711C463.716 805.711 488.337 784.798 494.122 756.913C497.385 756.319 500.352 755.429 503.318 754.095C512.514 767.295 527.791 775.898 544.997 775.898C573.03 775.898 595.872 753.056 595.872 725.023C595.872 696.99 573.475 674 545.442 674Z" fill="#009A74"/>
<path d="M319.4 48.7996C319.4 39.8996 312.1 32.5996 303.2 32.5996C301.4 32.5996 299.7 32.8996 298.1 33.3996C295 23.3996 285.7 16.0996 274.7 16.0996C267.2 16.0996 260.6 19.3996 256.1 24.6996C252.7 22.9996 248.9 21.9996 244.9 21.9996C234.6 21.9996 225.8 28.2996 222.2 37.2996C221.6 37.1996 221 37.1996 220.4 37.1996C213.2 37.1996 207.1 41.8996 205 48.2996C238.2 48.1996 305 48.6996 319.4 48.7996Z" fill="#F4F4F4"/>
<path d="M136.4 349.6C136.4 340.7 129.1 333.4 120.2 333.4C118.4 333.4 116.7 333.7 115.1 334.2C112 324.2 102.7 316.9 91.7 316.9C84.2 316.9 77.6 320.2 73.1 325.5C69.7 323.8 65.9 322.8 61.9 322.8C51.6 322.8 42.8 329.1 39.2 338.1C38.6 338 38 338 37.4 338C30.2 338 24.1 342.7 22 349.1C55.2 348.9 122 349.5 136.4 349.6Z" fill="#F4F4F4"/>
<path d="M345.2 443.501C345.2 434.601 337.9 427.301 329 427.301C327.2 427.301 325.5 427.601 323.9 428.101C320.8 418.101 311.5 410.801 300.5 410.801C293 410.801 286.4 414.101 281.9 419.401C278.5 417.701 274.7 416.701 270.7 416.701C260.4 416.701 251.6 423.001 248 432.001C247.4 431.901 246.8 431.901 246.2 431.901C239 431.901 232.9 436.601 230.8 443.001C264.1 442.901 330.9 443.401 345.2 443.501Z" fill="#F4F4F4"/>
<path d="M134.523 789V771.938H139.773C141.273 771.938 142.613 772.277 143.793 772.957C144.98 773.629 145.906 774.59 146.57 775.84C147.234 777.082 147.566 778.496 147.566 780.082V780.867C147.566 782.453 147.238 783.863 146.582 785.098C145.934 786.332 145.016 787.289 143.828 787.969C142.641 788.648 141.301 788.992 139.809 789H134.523ZM138.039 774.785V786.176H139.738C141.113 786.176 142.164 785.727 142.891 784.828C143.617 783.93 143.988 782.645 144.004 780.973V780.07C144.004 778.336 143.645 777.023 142.926 776.133C142.207 775.234 141.156 774.785 139.773 774.785H138.039ZM160.398 781.605H153.648V786.176H161.57V789H150.133V771.938H161.547V774.785H153.648V778.852H160.398V781.605ZM172.48 784.523C172.48 783.859 172.246 783.352 171.777 783C171.309 782.641 170.465 782.266 169.246 781.875C168.027 781.477 167.062 781.086 166.352 780.703C164.414 779.656 163.445 778.246 163.445 776.473C163.445 775.551 163.703 774.73 164.219 774.012C164.742 773.285 165.488 772.719 166.457 772.312C167.434 771.906 168.527 771.703 169.738 771.703C170.957 771.703 172.043 771.926 172.996 772.371C173.949 772.809 174.688 773.43 175.211 774.234C175.742 775.039 176.008 775.953 176.008 776.977H172.492C172.492 776.195 172.246 775.59 171.754 775.16C171.262 774.723 170.57 774.504 169.68 774.504C168.82 774.504 168.152 774.688 167.676 775.055C167.199 775.414 166.961 775.891 166.961 776.484C166.961 777.039 167.238 777.504 167.793 777.879C168.355 778.254 169.18 778.605 170.266 778.934C172.266 779.535 173.723 780.281 174.637 781.172C175.551 782.062 176.008 783.172 176.008 784.5C176.008 785.977 175.449 787.137 174.332 787.98C173.215 788.816 171.711 789.234 169.82 789.234C168.508 789.234 167.312 788.996 166.234 788.52C165.156 788.035 164.332 787.375 163.762 786.539C163.199 785.703 162.918 784.734 162.918 783.633H166.445C166.445 785.516 167.57 786.457 169.82 786.457C170.656 786.457 171.309 786.289 171.777 785.953C172.246 785.609 172.48 785.133 172.48 784.523ZM181.914 786.176H189.379V789H178.398V771.938H181.914V786.176ZM195.145 789H191.629V771.938H195.145V789ZM202.141 786.176H210.742V789H197.746V786.938L206.184 774.785H197.758V771.938H210.555V773.953L202.141 786.176ZM222.766 785.484H216.602L215.43 789H211.691L218.043 771.938H221.301L227.688 789H223.949L222.766 785.484ZM217.551 782.637H221.816L219.672 776.25L217.551 782.637Z" fill="#96DA8D"/>
<path d="M152.526 761L180.5 742.795L208.474 761L216 756.102L180.5 733L145 756.102L152.526 761Z" fill="#96DA8D"/>
</g>
<defs>
<clipPath id="clip0">
<rect width="360" height="800" fill="white"/>
</clipPath>
</defs>
</svg>
